<?xml version="1.0" encoding="UTF-8" standalone="no"?>
<!-- Created with Inkscape (http://www.inkscape.org/) -->

<svg
   xmlns:dc="http://purl.org/dc/elements/1.1/"
   xmlns:cc="http://creativecommons.org/ns#"
   xmlns:rdf="http://www.w3.org/1999/02/22-rdf-syntax-ns#"
   xmlns:svg="http://www.w3.org/2000/svg"
   xmlns="http://www.w3.org/2000/svg"
   xmlns:sodipodi="http://sodipodi.sourceforge.net/DTD/sodipodi-0.dtd"
   xmlns:inkscape="http://www.inkscape.org/namespaces/inkscape"
   id="svg4171"
   version="1.1"
   inkscape:version="0.91 r13725"
   xml:space="preserve"
   width="360"
   height="170"
   viewBox="0 0 360 170"
   sodipodi:docname="7011.svg"><metadata
     id="metadata4177"><rdf:RDF><cc:Work
         rdf:about=""><dc:format>image/svg+xml</dc:format><dc:type
           rdf:resource="http://purl.org/dc/dcmitype/StillImage" /><dc:title /></cc:Work></rdf:RDF></metadata><defs
     id="defs4175" /><sodipodi:namedview
     pagecolor="#ffffff"
     bordercolor="#666666"
     borderopacity="1"
     objecttolerance="10"
     gridtolerance="10"
     guidetolerance="10"
     inkscape:pageopacity="0"
     inkscape:pageshadow="2"
     inkscape:window-width="1301"
     inkscape:window-height="744"
     id="namedview4173"
     showgrid="false"
     inkscape:zoom="1.6861111"
     inkscape:cx="77.100494"
     inkscape:cy="108.83031"
     inkscape:window-x="65"
     inkscape:window-y="24"
     inkscape:window-maximized="1"
     inkscape:current-layer="g4179" /><g
     id="g4179"
     inkscape:groupmode="layer"
     inkscape:label="ink_ext_XXXXXX"
     transform="matrix(1.25,0,0,-1.25,0,170)"><path
       inkscape:connector-curvature="0"
       id="path4183"
       style="fill:#fdfdfd;fill-opacity:1;fill-rule:nonzero;stroke:none;opacity:0.49999996"
       d="M 0,0 288,0 288,288 0,288 0,0 Z" /><path
       inkscape:connector-curvature="0"
       id="path4185"
       style="fill:#fffbef;fill-opacity:1;fill-rule:nonzero;stroke:none;opacity:0.49999996"
       d="m -3.2,4.8 288,0 0,288 -288,0 0,-288 z" /><path
       inkscape:connector-curvature="0"
       id="path4187"
       style="fill:#3d385a;fill-opacity:1;fill-rule:nonzero;stroke:none;opacity:0.49999996"
       d="m 65.2695,26.4859 1.6993,-1.9179 c 0.1953,-0.2168 0.1738,-0.552 -0.045,-0.7461 -0.2187,-0.1938 -0.5527,-0.1739 -0.7461,0.0453 l -1.7011,1.918 c -0.1934,0.2179 -0.1739,0.5527 0.0449,0.7457 0.2187,0.1953 0.5539,0.1742 0.748,-0.045" /><path
       inkscape:connector-curvature="0"
       id="path4193"
       style="fill:#3d385a;fill-opacity:1;fill-rule:nonzero;stroke:none;opacity:0.49999996"
       d="m 148.171,39.2621 3.733,-2.5633 c 0.426,-0.2906 0.534,-0.8726 0.242,-1.3 -0.292,-0.425 -0.875,-0.534 -1.3,-0.2406 l -3.734,2.5629 c -0.425,0.291 -0.534,0.8738 -0.241,1.3 0.291,0.425 0.873,0.534 1.3,0.241" /><path
       inkscape:connector-curvature="0"
       id="path4207"
       style="fill:#012051;fill-opacity:1;fill-rule:nonzero;stroke:none;opacity:0.49999996"
       d="m 37.8125,103.901 -0.6582,-4.6389 c -0.075,-0.5289 -0.5645,-0.8973 -1.0938,-0.823 -0.5292,0.0769 -0.8972,0.566 -0.8222,1.0949 l 0.657,4.64 c 0.0754,0.528 0.5656,0.896 1.0942,0.822 0.5293,-0.076 0.8972,-0.565 0.823,-1.095" /><path
       inkscape:connector-curvature="0"
       id="path4215"
       style="fill:#300000;fill-opacity:0;fill-rule:nonzero;stroke:none;opacity:0.49999996"
       d="m 174.381,139.581 -0.41,-9.662 c -0.047,-1.102 -0.979,-1.957 -2.08,-1.91 -1.102,0.047 -1.957,0.977 -1.911,2.08 l 0.411,9.661 c 0.047,1.103 0.978,1.958 2.08,1.911 1.101,-0.047 1.957,-0.978 1.91,-2.08" /><path
       inkscape:connector-curvature="0"
       id="path4217"
       style="fill:#300000;fill-opacity:0;fill-rule:nonzero;stroke:none;opacity:0.49999996"
       d="m 91.8594,131.107 4.3027,0.229 c 0.4902,0.025 0.9102,-0.351 0.9356,-0.842 0.0261,-0.49 -0.3497,-0.91 -0.8411,-0.935 l -4.3023,-0.229 c -0.4914,-0.025 -0.9094,0.351 -0.9367,0.842 -0.0254,0.49 0.3515,0.91 0.8418,0.935" /><path
       inkscape:connector-curvature="0"
       id="path4231"
       style="fill:#3d385a;fill-opacity:1;fill-rule:nonzero;stroke:none;opacity:0.49999996"
       d="m 194.25,97.227 1.121,2.289 c 0.128,0.261 0.443,0.3692 0.704,0.2418 0.261,-0.1289 0.37,-0.4437 0.241,-0.7047 l -1.121,-2.289 c -0.128,-0.2621 -0.443,-0.3692 -0.704,-0.243 -0.261,0.1277 -0.37,0.4437 -0.241,0.7059" /><path
       inkscape:connector-curvature="0"
       id="path4237"
       style="fill:#300000;fill-opacity:0;fill-rule:nonzero;stroke:none;opacity:0.49999996"
       d="m 168.588,104.711 7.699,1.353 c 0.878,0.155 1.715,-0.433 1.869,-1.311 0.155,-0.878 -0.431,-1.715 -1.31,-1.869 l -7.699,-1.353 c -0.877,-0.154 -1.715,0.432 -1.87,1.311 -0.154,0.878 0.434,1.715 1.311,1.869" /><path
       inkscape:connector-curvature="0"
       id="path4239"
       style="fill:#3d385a;fill-opacity:1;fill-rule:nonzero;stroke:none;opacity:0.49999996"
       d="m 220.401,51.6738 8.695,3.3051 c 0.992,0.3762 2.101,-0.1219 2.478,-1.1141 0.377,-0.9918 -0.121,-2.1007 -1.113,-2.4777 l -8.694,-3.3051 c -0.992,-0.3769 -2.101,0.1211 -2.478,1.1129 -0.377,0.9922 0.121,2.102 1.112,2.4789" /><path
       inkscape:connector-curvature="0"
       id="path4245"
       style="fill:#012051;fill-opacity:1;fill-rule:nonzero;stroke:none;opacity:0.49999996"
       d="m 99.1152,98.843 6.8078,2.745 c 0.776,0.313 1.66,-0.063 1.973,-0.839 0.313,-0.776 -0.062,-1.6592 -0.839,-1.974 l -6.808,-2.7441 c -0.7763,-0.3129 -1.6599,0.0632 -1.9736,0.839 -0.3125,0.7762 0.0625,1.659 0.8398,1.9731" /><path
       inkscape:connector-curvature="0"
       id="path4249"
       style="fill:#3d385a;fill-opacity:1;fill-rule:nonzero;stroke:none;opacity:0.49999996"
       d="m 83.4473,53.166 -6.8977,-6.682 c -0.7859,-0.7621 -2.0418,-0.7418 -2.8047,0.0441 -0.7613,0.786 -0.7422,2.0418 0.0442,2.8047 l 6.8972,6.6832 c 0.7864,0.761 2.0422,0.7422 2.8047,-0.0449 0.7617,-0.7871 0.7426,-2.043 -0.0437,-2.8051" /><path
       inkscape:connector-curvature="0"
       id="path4251"
       style="fill:#3d385a;fill-opacity:1;fill-rule:nonzero;stroke:none;opacity:0.49999996"
       d="m 175.613,14.223 -2.531,1.802 c -0.288,0.2051 -0.355,0.607 -0.149,0.8949 0.206,0.2891 0.606,0.3563 0.895,0.15 l 2.529,-1.8019 c 0.289,-0.2059 0.357,-0.6071 0.151,-0.895 -0.205,-0.289 -0.607,-0.3558 -0.895,-0.15" /><path
       inkscape:connector-curvature="0"
       id="path4253"
       style="fill:#300000;fill-opacity:0;fill-rule:nonzero;stroke:none;opacity:0.49999996"
       d="m 46.5281,145.809 -3.6695,2.056 c -0.4191,0.235 -0.5676,0.765 -0.3332,1.184 0.2344,0.418 0.7637,0.567 1.1824,0.332 l 3.6699,-2.057 c 0.4192,-0.234 0.5676,-0.764 0.3332,-1.183 -0.2343,-0.418 -0.7636,-0.568 -1.1828,-0.332" /><path
       inkscape:connector-curvature="0"
       id="path4255"
       style="fill:#3d385a;fill-opacity:1;fill-rule:nonzero;stroke:none;opacity:0.49999996"
       d="m 225.863,17.5129 6.662,-6.9149 c 0.76,-0.78902 0.737,-2.04409 -0.051,-2.80503 -0.789,-0.76016 -2.044,-0.73594 -2.804,0.05312 l -6.662,6.91481 c -0.76,0.7883 -0.737,2.0442 0.052,2.8032 0.789,0.7597 2.044,0.7371 2.803,-0.0512" /><path
       inkscape:connector-curvature="0"
       id="path4259"
       style="fill:#3d385a;fill-opacity:1;fill-rule:nonzero;stroke:none;opacity:0.49999996"
       d="m 46.1289,15.6602 -2.2266,1.832 c -0.2539,0.209 -0.291,0.5848 -0.082,0.8387 0.209,0.2543 0.584,0.2902 0.8379,0.0812 l 2.2266,-1.832 c 0.2539,-0.209 0.291,-0.584 0.082,-0.8379 -0.209,-0.2543 -0.584,-0.291 -0.8379,-0.082" /><path
       inkscape:connector-curvature="0"
       id="path4263"
       style="fill:#3d385a;fill-opacity:1;fill-rule:nonzero;stroke:none;opacity:0.49999996"
       d="m 162.496,85.1109 1.441,2.5911 c 0.164,0.296 0.537,0.4019 0.833,0.2371 0.294,-0.1641 0.401,-0.5371 0.236,-0.8321 l -1.441,-2.5898 c -0.164,-0.2961 -0.537,-0.4024 -0.833,-0.2383 -0.294,0.1641 -0.401,0.5371 -0.236,0.832" /><path
       inkscape:connector-curvature="0"
       id="path4265"
       style="fill:#3d385a;fill-opacity:1;fill-rule:nonzero;stroke:none;opacity:0.49999996"
       d="m 119.51,27.041 -1.699,-9.2582 c -0.195,-1.0558 -1.207,-1.7558 -2.264,-1.5617 -1.056,0.1949 -1.755,1.2078 -1.561,2.2629 l 1.7,9.2582 c 0.193,1.057 1.207,1.7558 2.262,1.5617 1.056,-0.1949 1.755,-1.207 1.562,-2.2629" /><path
       inkscape:connector-curvature="0"
       id="path4267"
       style="fill:#e6c1be;fill-opacity:1;fill-rule:nonzero;stroke:none;opacity:0.49999996"
       d="m 272.743,136.131 2.441,0.884 c 0.277,0.1 0.585,-0.043 0.685,-0.322 0.102,-0.278 -0.043,-0.586 -0.321,-0.686 l -2.441,-0.884 c -0.277,-0.102 -0.585,0.043 -0.685,0.321 -0.102,0.279 0.043,0.586 0.321,0.687" /><path
       inkscape:connector-curvature="0"
       id="path4269"
       style="fill:#e6c1be;fill-opacity:1;fill-rule:nonzero;stroke:none;opacity:0.49999996"
       d="M 15.5867,67.023 8.75781,60.9531 C 7.97852,60.2609 6.78516,60.3301 6.09375,61.109 5.40039,61.8891 5.4707,63.082 6.25,63.773 l 6.8289,6.0719 c 0.7797,0.6922 1.9719,0.6223 2.6652,-0.1578 0.6914,-0.7781 0.6211,-1.9699 -0.1574,-2.6641" /><path
       inkscape:connector-curvature="0"
       id="path4275"
       style="fill:#e6c1be;fill-opacity:1;fill-rule:nonzero;stroke:none;opacity:0.49999996"
       d="m 19.0586,143.051 -2.4746,-8.545 c -0.2813,-0.975 -1.3008,-1.535 -2.2754,-1.254 -0.9746,0.282 -1.5352,1.301 -1.2539,2.275 l 2.4746,8.545 c 0.2812,0.975 1.3008,1.537 2.2754,1.254 0.9746,-0.281 1.5359,-1.301 1.2539,-2.275" /><path
       inkscape:connector-curvature="0"
       id="path4277"
       style="fill:#e6c1be;fill-opacity:1;fill-rule:nonzero;stroke:none;opacity:0.49999996"
       d="m 55.0105,53.1602 3.0129,-1.0512 c 0.3438,-0.1199 0.5254,-0.4961 0.4063,-0.8391 -0.1199,-0.3437 -0.4961,-0.5258 -0.8399,-0.4051 l -3.0136,1.0512 c -0.3438,0.1199 -0.5254,0.4961 -0.4043,0.8399 0.1191,0.3441 0.4953,0.525 0.8386,0.4043" /><path
       inkscape:connector-curvature="0"
       id="path4279"
       style="fill:#e6c1be;fill-opacity:1;fill-rule:nonzero;stroke:none;opacity:0.49999996"
       d="m 71.7988,4.775 -3.9543,1.22383 c -0.45,0.14023 -0.7027,0.61836 -0.5632,1.06914 0.1386,0.45195 0.6179,0.70312 1.0695,0.56523 L 72.3047,6.40781 C 72.7559,6.26914 73.0078,5.78984 72.8684,5.33906 72.7285,4.88789 72.25,4.63516 71.7988,4.775" /><path
       inkscape:connector-curvature="0"
       id="path4281"
       style="fill:#e6c1be;fill-opacity:1;fill-rule:nonzero;stroke:none;opacity:0.49999996"
       d="m 202.684,10.2301 -1.838,-2.11096 c -0.209,-0.24023 -0.575,-0.26523 -0.816,-0.05703 -0.241,0.20977 -0.266,0.57578 -0.055,0.8168 l 1.837,2.11019 c 0.209,0.241 0.575,0.266 0.815,0.0558 0.24,-0.209 0.266,-0.5738 0.057,-0.8148" /><path
       inkscape:connector-curvature="0"
       id="path4293"
       style="fill:#e6c1be;fill-opacity:1;fill-rule:nonzero;stroke:none;opacity:0.49999996"
       d="m 5.18359,121.242 3.24219,-3.402 c 0.36914,-0.387 0.3543,-1.002 -0.0332,-1.371 -0.38867,-0.37 -1.00274,-0.356 -1.37305,0.033 l -3.24219,3.402 c -0.36914,0.387 -0.35468,1.002 0.03321,1.371 0.38867,0.371 1.00312,0.356 1.37304,-0.033" /><path
       inkscape:connector-curvature="0"
       id="path4295"
       style="fill:#e6c1be;fill-opacity:1;fill-rule:nonzero;stroke:none;opacity:0.49999996"
       d="m 278.653,6.975 2.814,2.74414 c 0.32,0.31176 0.834,0.30466 1.147,-0.01601 0.313,-0.31993 0.306,-0.83399 -0.014,-1.1461 L 279.786,5.81211 C 279.465,5.5 278.951,5.50703 278.639,5.82813 c -0.313,0.31992 -0.307,0.83398 0.014,1.14687" /><path
       inkscape:connector-curvature="0"
       id="path4297"
       style="fill:#e6c1be;fill-opacity:1;fill-rule:nonzero;stroke:none;opacity:0.49999996"
       d="m 240.48,108.629 2.975,0.13 c 0.34,0.014 0.627,-0.248 0.641,-0.587 0.015,-0.34 -0.248,-0.627 -0.586,-0.643 l -2.977,-0.13 c -0.34,-0.014 -0.627,0.248 -0.64,0.587 -0.016,0.34 0.248,0.627 0.587,0.643" /><path
       inkscape:connector-curvature="0"
       id="path4299"
       style="fill:#e6c1be;fill-opacity:1;fill-rule:nonzero;stroke:none;opacity:0.49999996"
       d="m 206.89,76.2941 3.018,1.4071 c 0.344,0.1597 0.754,0.0117 0.914,-0.334 0.16,-0.3442 0.012,-0.7531 -0.333,-0.9133 l -3.018,-1.407 c -0.344,-0.1598 -0.754,-0.0117 -0.914,0.334 -0.161,0.3441 -0.012,0.7531 0.333,0.9132" /><path
       inkscape:connector-curvature="0"
       id="path4305"
       style="fill:#e6c1be;fill-opacity:1;fill-rule:nonzero;stroke:none;opacity:0.49999996"
       d="m 183.333,70.527 -2.401,1.1468 c -0.275,0.1313 -0.391,0.4594 -0.26,0.7321 0.131,0.2742 0.459,0.391 0.732,0.2601 l 2.403,-1.1461 c 0.273,-0.1308 0.389,-0.459 0.259,-0.7328 -0.13,-0.273 -0.459,-0.391 -0.733,-0.2601" /><path
       inkscape:connector-curvature="0"
       id="path4311"
       style="fill:#e6c1be;fill-opacity:1;fill-rule:nonzero;stroke:none;opacity:0.49999996"
       d="M 23.0598,15.0352 20.7969,6.11914 c -0.2578,-1.01719 -1.291,-1.6332 -2.3086,-1.375 -1.0164,0.25781 -1.632,1.29102 -1.3738,2.30899 l 2.2625,8.91597 c 0.2578,1.0168 1.291,1.6329 2.3085,1.375 1.0165,-0.2582 1.6321,-1.2921 1.3743,-2.3089" /><path
       inkscape:connector-curvature="0"
       id="path4315"
       style="fill:#e6c1be;fill-opacity:1;fill-rule:nonzero;stroke:none;opacity:0.49999996"
       d="m 18.4883,89.6461 2.1238,-3.384 c 0.2434,-0.3859 0.1262,-0.8961 -0.2605,-1.1383 -0.3848,-0.2429 -0.8946,-0.1258 -1.1368,0.2614 l -2.125,3.3847 c -0.2421,0.386 -0.1257,0.8949 0.2598,1.1371 0.3867,0.243 0.8965,0.1262 1.1387,-0.2609" /><path
       inkscape:connector-curvature="0"
       id="path4317"
       style="fill:#e6c1be;fill-opacity:1;fill-rule:nonzero;stroke:none;opacity:0.49999996"
       d="m 87.5234,70.0922 3.5235,3.7168 c 0.4023,0.423 1.0722,0.441 1.4961,0.039 0.4238,-0.4019 0.4414,-1.071 0.039,-1.4941 l -3.5222,-3.7168 c -0.4016,-0.4242 -1.0715,-0.443 -1.4953,-0.041 -0.4239,0.4019 -0.4422,1.0719 -0.0411,1.4961" /><path
       inkscape:connector-curvature="0"
       id="path4325"
       style="fill:#e6c1be;fill-opacity:1;fill-rule:nonzero;stroke:none;opacity:0.49999996"
       d="m 6.04297,21.2359 0.99609,-3.314 C 7.1543,17.543 6.93945,17.1449 6.56055,17.0309 6.18359,16.9172 5.7832,17.1309 5.66992,17.5102 l -0.99804,3.3136 c -0.11329,0.3793 0.10156,0.7782 0.48046,0.891 0.37696,0.1141 0.77539,-0.1 0.89063,-0.4789" /><path
       inkscape:connector-curvature="0"
       id="path4327"
       style="fill:#e6c1be;fill-opacity:1;fill-rule:nonzero;stroke:none;opacity:0.49999996"
       d="m 228.159,130.349 -1.363,2.788 c -0.155,0.317 -0.025,0.701 0.294,0.856 0.318,0.155 0.701,0.025 0.857,-0.294 l 1.364,-2.787 c 0.156,-0.318 0.023,-0.702 -0.294,-0.857 -0.318,-0.157 -0.703,-0.024 -0.858,0.294" /><path
       inkscape:connector-curvature="0"
       id="path4333"
       style="fill:#e6c1be;fill-opacity:1;fill-rule:nonzero;stroke:none;opacity:0.49999996"
       d="m 19.1348,114.798 3.3047,1.236 c 0.3769,0.141 0.796,-0.05 0.9375,-0.427 0.1406,-0.377 -0.0508,-0.796 -0.4278,-0.938 l -3.3047,-1.235 c -0.3769,-0.142 -0.7968,0.048 -0.9375,0.425 -0.1406,0.377 0.0508,0.797 0.4278,0.939" /><path
       inkscape:connector-curvature="0"
       id="path4337"
       style="fill:#e6c1be;fill-opacity:1;fill-rule:nonzero;stroke:none;opacity:0.49999996"
       d="m 121.252,120.025 3.933,2.675 c 0.448,0.306 1.059,0.189 1.364,-0.26 0.305,-0.448 0.189,-1.059 -0.26,-1.364 l -3.933,-2.675 c -0.448,-0.305 -1.059,-0.188 -1.364,0.26 -0.305,0.448 -0.189,1.06 0.26,1.364" /><path
       inkscape:connector-curvature="0"
       id="path4339"
       style="fill:#e6c1be;fill-opacity:1;fill-rule:nonzero;stroke:none;opacity:0.49999996"
       d="m 254.536,86.9609 1.341,5.761 c 0.152,0.657 0.81,1.0652 1.467,0.9133 0.657,-0.1543 1.066,-0.8114 0.913,-1.4672 l -1.341,-5.7621 c -0.152,-0.6559 -0.811,-1.0661 -1.467,-0.9118 -0.657,0.152 -1.066,0.809 -0.913,1.4668" /><path
       inkscape:connector-curvature="0"
       id="path4341"
       style="fill:#e6c1be;fill-opacity:1;fill-rule:nonzero;stroke:none;opacity:0.49999996"
       d="m 242.832,72.473 -1.573,-8.0628 c -0.18,-0.9204 -1.071,-1.5192 -1.99,-1.3403 -0.92,0.1801 -1.521,1.0711 -1.341,1.991 l 1.574,8.0621 c 0.18,0.92 1.07,1.52 1.99,1.3399 0.92,-0.1797 1.52,-1.0699 1.34,-1.9899" /><path
       inkscape:connector-curvature="0"
       id="path4345"
       style="fill:#e6c1be;fill-opacity:1;fill-rule:nonzero;stroke:none;opacity:0.49999996"
       d="m 72.7949,120.529 7.0176,0.305 c 0.8008,0.035 1.4785,-0.586 1.5129,-1.387 0.034,-0.801 -0.5859,-1.477 -1.3867,-1.511 l -7.0176,-0.306 c -0.8012,-0.034 -1.4777,0.586 -1.5129,1.387 -0.0352,0.799 0.5859,1.477 1.3867,1.512" /><path
       inkscape:connector-curvature="0"
       id="path4347"
       style="fill:#d54492;fill-opacity:1;fill-rule:nonzero;stroke:none;opacity:0.49999996"
       d="m 12.125,42.2109 0.5078,-5.9629 c 0.0586,-0.68 -0.4453,-1.2789 -1.1262,-1.3371 -0.6804,-0.057 -1.2781,0.4461 -1.3367,1.1262 L 9.66211,42 c -0.05859,0.6801 0.44529,1.2789 1.12619,1.3371 0.6805,0.0578 1.2781,-0.4461 1.3367,-1.1262" /><path
       inkscape:connector-curvature="0"
       id="path4349"
       style="fill:#d54492;fill-opacity:1;fill-rule:nonzero;stroke:none;opacity:0.49999996"
       d="m 235.732,27.6988 -0.148,3.7422 c -0.017,0.4281 0.316,0.7879 0.743,0.8039 0.427,0.0172 0.786,-0.3148 0.804,-0.7429 l 0.146,-3.7418 c 0.018,-0.4282 -0.314,-0.7872 -0.742,-0.8043 -0.427,-0.0168 -0.787,0.3152 -0.803,0.7429" /><path
       inkscape:connector-curvature="0"
       id="path4355"
       style="fill:#d54492;fill-opacity:1;fill-rule:nonzero;stroke:none;opacity:0.49999996"
       d="m 245.037,130.659 6.477,3.019 c 0.74,0.343 1.617,0.023 1.963,-0.715 0.343,-0.739 0.023,-1.617 -0.715,-1.961 l -6.479,-3.018 c -0.738,-0.344 -1.617,-0.025 -1.961,0.714 -0.343,0.739 -0.023,1.617 0.715,1.961" /><path
       inkscape:connector-curvature="0"
       id="path4357"
       style="fill:#d54492;fill-opacity:1;fill-rule:nonzero;stroke:none;opacity:0.49999996"
       d="m 83.8203,98.6602 -4.3789,-0.1704 c -0.5,-0.0187 -0.9199,0.3692 -0.9394,0.8684 -0.0196,0.4988 0.3691,0.9208 0.8691,0.9408 l 4.3769,0.17 c 0.5,0.019 0.9219,-0.369 0.9415,-0.8678 0.0195,-0.4992 -0.3711,-0.9211 -0.8692,-0.941" /><path
       inkscape:connector-curvature="0"
       id="path4361"
       style="fill:#d54492;fill-opacity:1;fill-rule:nonzero;stroke:none;opacity:0.49999996"
       d="m 202.207,53.4121 -2.193,1.6461 c -0.251,0.1867 -0.301,0.5418 -0.114,0.793 0.188,0.25 0.543,0.3 0.793,0.1117 l 2.194,-1.6457 c 0.25,-0.1871 0.301,-0.5422 0.113,-0.7934 -0.188,-0.25 -0.543,-0.3 -0.793,-0.1117" /><path
       inkscape:connector-curvature="0"
       id="path4363"
       style="fill:#d54492;fill-opacity:1;fill-rule:nonzero;stroke:none;opacity:0.49999996"
       d="m 218.876,100.58 0.147,-7.1159 c 0.018,-0.8121 -0.627,-1.484 -1.439,-1.5012 -0.811,-0.016 -1.482,0.6293 -1.5,1.4391 l -0.147,7.117 c -0.017,0.811 0.627,1.483 1.438,1.501 0.813,0.015 1.484,-0.629 1.501,-1.44" /><path
       inkscape:connector-curvature="0"
       id="path4377"
       style="fill:#d54492;fill-opacity:1;fill-rule:nonzero;stroke:none;opacity:0.49999996"
       d="m 88.2344,16.834 1.2695,-2.527 c 0.1445,-0.2879 0.0293,-0.639 -0.2598,-0.784 -0.2878,-0.1449 -0.6386,-0.0289 -0.7832,0.2598 l -1.2695,2.5281 c -0.1445,0.2879 -0.0293,0.6379 0.2598,0.7832 0.2883,0.145 0.6386,0.0289 0.7832,-0.2601" /><path
       inkscape:connector-curvature="0"
       id="path4379"
       style="fill:#d54492;fill-opacity:1;fill-rule:nonzero;stroke:none;opacity:0.49999996"
       d="m 216.041,119.851 -2.123,-4.368 c -0.242,-0.498 -0.842,-0.705 -1.34,-0.462 -0.498,0.242 -0.705,0.841 -0.464,1.339 l 2.122,4.368 c 0.243,0.498 0.843,0.706 1.341,0.463 0.499,-0.242 0.706,-0.842 0.464,-1.34" /><path
       inkscape:connector-curvature="0"
       id="path4381"
       style="fill:#d54492;fill-opacity:1;fill-rule:nonzero;stroke:none;opacity:0.49999996"
       d="m 154.361,19.1391 -7.103,-5.8352 c -0.811,-0.6648 -2.008,-0.548 -2.673,0.2621 -0.665,0.8102 -0.548,2.0059 0.263,2.6719 l 7.103,5.834 c 0.811,0.666 2.006,0.5492 2.672,-0.261 0.666,-0.8109 0.549,-2.007 -0.262,-2.6718" /><path
       inkscape:connector-curvature="0"
       id="path4387"
       style="fill:#d54492;fill-opacity:1;fill-rule:nonzero;stroke:none;opacity:0.49999996"
       d="m 41.4082,129.787 -9.2852,-1.622 c -1.0585,-0.185 -2.0683,0.523 -2.2531,1.583 -0.1844,1.059 0.5239,2.067 1.5832,2.252 l 9.2852,1.623 c 1.0586,0.186 2.0683,-0.523 2.2527,-1.582 0.1848,-1.06 -0.523,-2.068 -1.5828,-2.254" /><path
       inkscape:connector-curvature="0"
       id="path4391"
       style="fill:#d54492;fill-opacity:1;fill-rule:nonzero;stroke:none;opacity:0.49999996"
       d="m 46.3215,75.0449 -2.7973,-2.875 c -0.3191,-0.3277 -0.8426,-0.3359 -1.1707,-0.0168 -0.3281,0.3199 -0.3359,0.843 -0.0168,1.1707 l 2.7973,2.875 c 0.3191,0.3282 0.8426,0.3364 1.1707,0.0172 0.3281,-0.3199 0.3359,-0.843 0.0168,-1.1711" /><path
       inkscape:connector-curvature="0"
       id="path4395"
       style="fill:#d54492;fill-opacity:1;fill-rule:nonzero;stroke:none;opacity:0.49999996"
       d="m 31.6797,31.0719 -1.8613,2.4871 c -0.2129,0.2832 -0.1543,0.6851 0.1289,0.898 0.2832,0.2129 0.6855,0.1539 0.8984,-0.1289 l 1.8613,-2.4859 c 0.2129,-0.2832 0.1543,-0.6863 -0.1289,-0.8992 -0.2832,-0.2129 -0.6855,-0.1539 -0.8984,0.1289" /><path
       inkscape:connector-curvature="0"
       id="path4399"
       style="fill:#d54492;fill-opacity:1;fill-rule:nonzero;stroke:none;opacity:0.49999996"
       d="m 111.361,7.87109 -5.72,-2.86211 C 104.988,4.6832 104.195,4.94688 103.869,5.6 c -0.327,0.65195 -0.062,1.44492 0.59,1.77109 l 5.721,2.86211 c 0.652,0.327 1.445,0.0617 1.771,-0.59023 0.327,-0.65313 0.063,-1.44609 -0.59,-1.77188" /><path
       inkscape:connector-curvature="0"
       id="path4401"
       style="fill:#d54492;fill-opacity:1;fill-rule:nonzero;stroke:none;opacity:0.49999996"
       d="m 93.9473,33.6449 -2.5633,0.302 c -0.2922,0.0351 -0.5012,0.3011 -0.4668,0.5929 0.034,0.2922 0.2996,0.5012 0.5918,0.4672 l 2.5633,-0.3039 c 0.2929,-0.034 0.5019,-0.2992 0.4668,-0.5922 -0.034,-0.2929 -0.2989,-0.5019 -0.5918,-0.466" /><path
       inkscape:connector-curvature="0"
       id="path4403"
       style="fill:#d54492;fill-opacity:1;fill-rule:nonzero;stroke:none;opacity:0.49999996"
       d="m 271.555,73.2852 2.86,1.5039 c 0.326,0.1711 0.73,0.0449 0.901,-0.2809 0.171,-0.3262 0.045,-0.7293 -0.281,-0.9012 l -2.859,-1.5031 c -0.326,-0.1707 -0.73,-0.0449 -0.901,0.2813 -0.171,0.3257 -0.046,0.7277 0.28,0.9" /><path
       inkscape:connector-curvature="0"
       id="path4405"
       style="fill:#d54492;fill-opacity:1;fill-rule:nonzero;stroke:none;opacity:0.49999996"
       d="m 173.768,46.5891 -1.044,-2.259 c -0.12,-0.2571 -0.425,-0.3692 -0.683,-0.25 -0.257,0.1187 -0.369,0.4238 -0.25,0.682 l 1.044,2.2578 c 0.119,0.2571 0.425,0.3699 0.683,0.2512 0.257,-0.1199 0.369,-0.425 0.25,-0.682" /><path
       inkscape:connector-curvature="0"
       id="path4407"
       style="fill:#d54492;fill-opacity:1;fill-rule:nonzero;stroke:none;opacity:0.49999996"
       d="m 198.748,32.9578 4.357,0.0203 c 0.497,8e-4 0.902,-0.4 0.904,-0.8961 0.003,-0.498 -0.4,-0.9019 -0.896,-0.9039 l -4.357,-0.0203 c -0.496,-0.0019 -0.902,0.3992 -0.903,0.8973 -0.003,0.4961 0.399,0.9008 0.895,0.9027" /><path
       inkscape:connector-curvature="0"
       id="path4409"
       style="fill:#d54492;fill-opacity:1;fill-rule:nonzero;stroke:none;opacity:0.49999996"
       d="m 281.584,116.658 -0.09,2.725 c -0.01,0.311 0.235,0.571 0.545,0.582 0.311,0.01 0.57,-0.235 0.581,-0.545 l 0.089,-2.725 c 0.01,-0.31 -0.233,-0.57 -0.544,-0.58 -0.311,-0.011 -0.571,0.233 -0.581,0.543" /><path
       inkscape:connector-curvature="0"
       id="path4411"
       style="fill:#d54492;fill-opacity:1;fill-rule:nonzero;stroke:none;opacity:0.49999996"
       d="m 32.0918,51.9922 -4.0723,0.7219 c -0.4636,0.0828 -0.7734,0.5257 -0.6914,0.9898 0.0821,0.4641 0.5254,0.775 0.9903,0.6922 l 4.0703,-0.7211 c 0.4648,-0.0828 0.7754,-0.527 0.6926,-0.9898 -0.0825,-0.4641 -0.5254,-0.775 -0.9895,-0.693" /><path
       inkscape:connector-curvature="0"
       id="path4415"
       style="fill:#d54492;fill-opacity:1;fill-rule:nonzero;stroke:none;opacity:0.49999996"
       d="m 259.623,29.8719 -4.254,-0.9289 c -0.486,-0.1071 -0.965,0.2019 -1.071,0.6859 -0.107,0.4859 0.202,0.9652 0.686,1.0711 l 4.256,0.9301 c 0.485,0.1058 0.965,-0.202 1.071,-0.6871 0.105,-0.486 -0.202,-0.9641 -0.688,-1.0711" /><path
       inkscape:connector-curvature="0"
       id="path4417"
       style="fill:#d54492;fill-opacity:1;fill-rule:nonzero;stroke:none;opacity:0.49999996"
       d="m 155.139,70.15 -8.205,-1.834 c -0.936,-0.209 -1.864,0.3801 -2.073,1.316 -0.211,0.936 0.379,1.8641 1.315,2.0731 l 8.205,1.8347 c 0.935,0.209 1.863,-0.3796 2.072,-1.3148 0.209,-0.9359 -0.379,-1.8648 -1.314,-2.075" /><path
       inkscape:connector-curvature="0"
       id="path4419"
       style="fill:#d54492;fill-opacity:1;fill-rule:nonzero;stroke:none;opacity:0.49999996"
       d="m 186.735,116.893 -2.662,-0.831 c -0.303,-0.093 -0.626,0.076 -0.721,0.379 -0.094,0.304 0.075,0.627 0.378,0.721 l 2.663,0.83 c 0.303,0.096 0.627,-0.074 0.72,-0.378 0.096,-0.303 -0.074,-0.627 -0.378,-0.721" /><path
       inkscape:connector-curvature="0"
       id="path4423"
       style="fill:#d54492;fill-opacity:1;fill-rule:nonzero;stroke:none;opacity:0.49999996"
       d="m 154.41,136.406 -6.738,-2.439 c -0.769,-0.28 -1.617,0.119 -1.896,0.887 -0.278,0.769 0.12,1.618 0.888,1.896 l 6.738,2.439 c 0.769,0.28 1.618,-0.119 1.896,-0.886 0.278,-0.77 -0.119,-1.618 -0.888,-1.897" /><path
       inkscape:connector-curvature="0"
       id="path4427"
       style="fill:#fcdff1;fill-opacity:1;fill-rule:nonzero;stroke:none;opacity:0.49999996"
       d="m 135.826,7.86719 -2.634,0.06484 c -0.299,0.00703 -0.538,0.25586 -0.53,0.55703 0.007,0.3 0.256,0.53789 0.557,0.53086 l 2.634,-0.06484 c 0.299,-0.00703 0.538,-0.25625 0.53,-0.55703 -0.007,-0.3 -0.256,-0.53789 -0.557,-0.53086" /><path
       inkscape:connector-curvature="0"
       id="path4429"
       style="fill:#fcdff1;fill-opacity:1;fill-rule:nonzero;stroke:none;opacity:0.49999996"
       d="m 119.947,42.4879 6.826,1.5551 c 0.779,0.1781 1.553,-0.311 1.731,-1.0891 0.178,-0.7777 -0.311,-1.5539 -1.088,-1.7301 l -6.826,-1.5547 c -0.779,-0.1769 -1.555,0.3098 -1.732,1.0891 -0.176,0.7777 0.31,1.5527 1.089,1.7297" /><path
       inkscape:connector-curvature="0"
       id="path4441"
       style="fill:#fcdff1;fill-opacity:1;fill-rule:nonzero;stroke:none;opacity:0.49999996"
       d="m 133.425,96.0609 -2.72,-6.364 c -0.31,-0.725 -1.15,-1.0617 -1.877,-0.752 -0.724,0.311 -1.062,1.1512 -0.752,1.875 l 2.721,6.3641 c 0.309,0.725 1.15,1.0621 1.875,0.7519 0.726,-0.3109 1.062,-1.1507 0.753,-1.875" /><path
       inkscape:connector-curvature="0"
       id="path4445"
       style="fill:#fcdff1;fill-opacity:1;fill-rule:nonzero;stroke:none;opacity:0.49999996"
       d="m 149.521,113.709 5.065,-6.477 c 0.577,-0.738 0.447,-1.804 -0.292,-2.382 -0.738,-0.579 -1.806,-0.448 -2.384,0.291 l -5.062,6.476 c -0.578,0.738 -0.448,1.805 0.291,2.383 0.738,0.578 1.805,0.447 2.382,-0.291" /><path
       inkscape:connector-curvature="0"
       id="path4447"
       style="fill:#fcdff1;fill-opacity:1;fill-rule:nonzero;stroke:none;opacity:0.49999996"
       d="m 279.869,47.475 -5.78,1.4352 c -0.659,0.1636 -1.062,0.832 -0.898,1.491 0.164,0.6597 0.832,1.0617 1.492,0.8976 l 5.78,-1.4379 c 0.659,-0.164 1.06,-0.8308 0.896,-1.4898 -0.163,-0.659 -0.83,-1.0602 -1.49,-0.8961" /><path
       inkscape:connector-curvature="0"
       id="path4449"
       style="fill:#fcdff1;fill-opacity:1;fill-rule:nonzero;stroke:none;opacity:0.49999996"
       d="m 65.8879,133.172 -5.1906,3.965 c -0.5918,0.453 -0.7051,1.299 -0.252,1.891 0.4512,0.592 1.2988,0.705 1.8906,0.253 l 5.1895,-3.965 c 0.5918,-0.453 0.7051,-1.298 0.2539,-1.891 -0.4531,-0.592 -1.2996,-0.705 -1.8914,-0.253" /><path
       inkscape:connector-curvature="0"
       id="path4451"
       style="fill:#fcdff1;fill-opacity:1;fill-rule:nonzero;stroke:none;opacity:0.49999996"
       d="m 115.455,140.551 -0.857,2.502 c -0.098,0.285 0.054,0.595 0.34,0.693 0.285,0.098 0.596,-0.054 0.694,-0.34 l 0.856,-2.502 c 0.098,-0.285 -0.053,-0.595 -0.34,-0.693 -0.285,-0.098 -0.595,0.054 -0.693,0.34" /><path
       inkscape:connector-curvature="0"
       id="path4459"
       style="fill:#fcdff1;fill-opacity:1;fill-rule:nonzero;stroke:none;opacity:0.49999996"
       d="m 67.3711,86.459 2.0156,-6.7129 c 0.2305,-0.766 -0.2051,-1.5723 -0.9707,-1.8031 -0.7656,-0.2301 -1.5722,0.2039 -1.8027,0.9711 l -2.0156,6.7129 c -0.2305,0.766 0.2043,1.5718 0.9707,1.8031 0.7656,0.2301 1.5722,-0.2039 1.8027,-0.9711" /><path
       inkscape:connector-curvature="0"
       id="path4461"
       style="fill:#fcdff1;fill-opacity:1;fill-rule:nonzero;stroke:none;opacity:0.49999996"
       d="m 257.842,11.6691 7.371,2.2231 c 0.841,0.2527 1.728,-0.2231 1.982,-1.0641 0.253,-0.8402 -0.222,-1.7269 -1.064,-1.9812 L 258.76,8.62383 c -0.84,-0.25274 -1.728,0.22305 -1.981,1.06328 -0.254,0.83989 0.223,1.72769 1.063,1.98199" /><path
       inkscape:connector-curvature="0"
       id="path4465"
       style="fill:#fcdff1;fill-opacity:1;fill-rule:nonzero;stroke:none;opacity:0.49999996"
       d="m 198.746,129.282 -5.277,2.898 c -0.602,0.33 -0.823,1.086 -0.491,1.687 0.331,0.603 1.086,0.822 1.688,0.492 l 5.277,-2.897 c 0.602,-0.33 0.823,-1.087 0.492,-1.689 -0.331,-0.601 -1.087,-0.822 -1.689,-0.491" /><path
       inkscape:connector-curvature="0"
       id="path4469"
       style="fill:#fcdff1;fill-opacity:1;fill-rule:nonzero;stroke:none;opacity:0.49999996"
       d="m 105.885,55.65 2.578,-6.9641 c 0.295,-0.7949 -0.111,-1.6777 -0.906,-1.9711 -0.794,-0.2949 -1.677,0.1114 -1.971,0.9063 l -2.578,6.9648 c -0.295,0.795 0.111,1.6782 0.906,1.9711 0.794,0.295 1.677,-0.1121 1.971,-0.907" /><path
       inkscape:connector-curvature="0"
       id="path4471"
       style="fill:#fcdff1;fill-opacity:1;fill-rule:nonzero;stroke:none;opacity:0.49999996"
       d="m 115.086,75.5602 3.447,-1.9454 c 0.393,-0.2218 0.532,-0.7199 0.311,-1.1136 -0.222,-0.3942 -0.721,-0.5321 -1.114,-0.3114 l -3.448,1.9454 c -0.393,0.2218 -0.532,0.7199 -0.31,1.1136 0.221,0.3942 0.72,0.5321 1.114,0.3114" /><path
       inkscape:connector-curvature="0"
       id="path4477"
       style="fill:#fcdff1;fill-opacity:1;fill-rule:nonzero;stroke:none;opacity:0.49999996"
       d="m 233.452,84.5102 -1.347,6.2386 c -0.153,0.7121 0.299,1.4133 1.011,1.566 0.712,0.1543 1.413,-0.2976 1.567,-1.0097 l 1.346,-6.2391 c 0.154,-0.7109 -0.299,-1.4129 -1.01,-1.566 -0.712,-0.1539 -1.414,0.2988 -1.567,1.0102" /><path
       inkscape:connector-curvature="0"
       id="path4479"
       style="fill:#fcdff1;fill-opacity:1;fill-rule:nonzero;stroke:none;opacity:0.49999996"
       d="m 251.212,51.8461 6.492,2.3141 c 0.74,0.2636 1.555,-0.1231 1.819,-0.8633 0.264,-0.7399 -0.123,-1.5547 -0.863,-1.818 l -6.492,-2.3148 c -0.74,-0.2653 -1.555,0.1211 -1.818,0.8621 -0.265,0.741 0.122,1.5547 0.862,1.8199" /><path
       inkscape:connector-curvature="0"
       id="path4481"
       style="fill:#fcdff1;fill-opacity:1;fill-rule:nonzero;stroke:none;opacity:0.49999996"
       d="m 269.469,114.85 -4.919,0.842 c -0.561,0.097 -0.938,0.629 -0.842,1.191 0.097,0.56 0.629,0.937 1.191,0.842 l 4.918,-0.844 c 0.56,-0.096 0.937,-0.629 0.842,-1.19 -0.096,-0.561 -0.629,-0.938 -1.19,-0.841" /><path
       inkscape:connector-curvature="0"
       id="path4487"
       style="fill:#fcdff1;fill-opacity:1;fill-rule:nonzero;stroke:none;opacity:0.49999996"
       d="m 278.32,29.2531 0.631,-2.491 c 0.072,-0.2832 -0.099,-0.573 -0.385,-0.6449 -0.283,-0.0711 -0.572,0.1008 -0.644,0.3848 l -0.63,2.4902 c -0.071,0.284 0.101,0.5719 0.384,0.6449 0.285,0.0719 0.573,-0.1 0.644,-0.384" /><path
       inkscape:connector-curvature="0"
       id="path4493"
       style="fill:#fcdff1;fill-opacity:1;fill-rule:nonzero;stroke:none;opacity:0.49999996"
       d="m 54.1543,110.232 2.5793,-1.32 c 0.2937,-0.15 0.4102,-0.512 0.2598,-0.805 -0.1504,-0.295 -0.511,-0.411 -0.8059,-0.26 l -2.5781,1.32 c -0.2942,0.151 -0.4102,0.511 -0.2598,0.806 0.1504,0.294 0.5117,0.41 0.8047,0.259" /><path
       inkscape:connector-curvature="0"
       id="path4499"
       style="fill:#fcdff1;fill-opacity:1;fill-rule:nonzero;stroke:none;opacity:0.49999996"
       d="m 278.42,98.1051 -2.379,-1.377 c -0.271,-0.1582 -0.619,-0.066 -0.777,0.2059 -0.157,0.2711 -0.065,0.6191 0.207,0.7769 l 2.379,1.3782 c 0.271,0.157 0.619,0.0648 0.777,-0.2063 0.156,-0.2719 0.064,-0.6187 -0.207,-0.7777" /><path
       inkscape:connector-curvature="0"
       id="path4501"
       style="fill:#fcdff1;fill-opacity:1;fill-rule:nonzero;stroke:none;opacity:0.49999996"
       d="m 137.111,51.616 1.485,8.2649 c 0.17,0.9429 1.07,1.5703 2.013,1.4 0.943,-0.17 1.57,-1.0707 1.401,-2.0129 l -1.486,-8.2649 c -0.169,-0.9422 -1.071,-1.5691 -2.013,-1.4 -0.943,0.168 -1.57,1.0707 -1.4,2.0129" /><path
       inkscape:connector-curvature="0"
       id="path4511"
       style="fill:#fffbef;fill-opacity:1;fill-rule:nonzero;stroke:none;opacity:0.49999996"
       d="m 108.234,145.664 0,2.415 -0.939,-1.799 -0.386,0 -0.94,1.799 0,-2.415 -0.709,0 0,3.648 0.76,0 1.08,-2.076 1.088,2.076 0.755,0 0,-3.648 -0.709,0" /><path
       inkscape:connector-curvature="0"
       id="path4513"
       style="fill:#fffbef;fill-opacity:1;fill-rule:nonzero;stroke:none;opacity:0.49999996"
       d="m 113.266,146.286 0,-0.622 -2.534,0 0,3.648 2.487,0 0,-0.622 -1.778,0 0,-0.878 1.538,0 0,-0.576 -1.538,0 0,-0.95 1.825,0" /><path
       inkscape:connector-curvature="0"
       id="path4515"
       style="fill:#fffbef;fill-opacity:1;fill-rule:nonzero;stroke:none;opacity:0.49999996"
       d="m 117.839,145.664 0,2.415 -0.941,-1.799 -0.384,0 -0.942,1.799 0,-2.415 -0.709,0 0,3.648 0.761,0 1.079,-2.076 1.09,2.076 0.755,0 0,-3.648 -0.709,0" /><path
       inkscape:connector-curvature="0"
       id="path4517"
       style="fill:#fffbef;fill-opacity:1;fill-rule:nonzero;stroke:none;opacity:0.49999996"
       d="m 121.045,147.509 0.822,0 c 0.131,0 0.239,0.053 0.326,0.159 0.088,0.106 0.131,0.25 0.131,0.432 0,0.092 -0.013,0.175 -0.041,0.249 l -0.107,0.187 -0.156,0.116 -0.183,0.038 -0.792,0 0,-1.181 z m -0.709,-1.845 0,3.648 1.547,0 c 0.168,0 0.323,-0.035 0.465,-0.105 0.142,-0.07 0.265,-0.163 0.367,-0.277 0.103,-0.115 0.183,-0.245 0.242,-0.391 0.059,-0.145 0.088,-0.292 0.088,-0.439 0,-0.154 -0.027,-0.304 -0.083,-0.451 -0.055,-0.144 -0.132,-0.274 -0.232,-0.386 -0.099,-0.114 -0.218,-0.205 -0.359,-0.274 -0.141,-0.068 -0.295,-0.101 -0.463,-0.101 l -0.863,0 0,-1.224 -0.709,0" /><path
       inkscape:connector-curvature="0"
       id="path4519"
       style="fill:#fffbef;fill-opacity:1;fill-rule:nonzero;stroke:none;opacity:0.49999996"
       d="m 127.623,149.312 0,-3.648 -0.704,0 0,1.558 -1.655,0 0,-1.558 -0.709,0 0,3.648 0.709,0 0,-1.474 1.655,0 0,1.474 0.704,0" /><path
       inkscape:connector-curvature="0"
       id="path4521"
       style="fill:#fffbef;fill-opacity:1;fill-rule:nonzero;stroke:none;opacity:0.49999996"
       d="m 129.41,145.664 0.70898,0 0,3.64375 -0.70898,0 0,-3.64375 z" /><path
       inkscape:connector-curvature="0"
       id="path4523"
       style="fill:#fffbef;fill-opacity:1;fill-rule:nonzero;stroke:none;opacity:0.49999996"
       d="m 134.087,148.356 -0.131,0.098 c -0.063,0.041 -0.141,0.082 -0.231,0.121 -0.091,0.039 -0.19,0.072 -0.295,0.1 -0.108,0.027 -0.215,0.041 -0.325,0.041 -0.195,0 -0.34,-0.035 -0.437,-0.108 -0.096,-0.072 -0.143,-0.172 -0.143,-0.302 l 0.053,-0.188 0.157,-0.131 c 0.069,-0.039 0.156,-0.072 0.26,-0.103 0.105,-0.031 0.226,-0.064 0.362,-0.098 0.178,-0.048 0.34,-0.099 0.486,-0.154 0.145,-0.055 0.268,-0.123 0.37,-0.205 0.101,-0.082 0.179,-0.181 0.234,-0.295 0.055,-0.115 0.082,-0.257 0.082,-0.425 0,-0.195 -0.037,-0.362 -0.111,-0.501 -0.073,-0.139 -0.172,-0.251 -0.295,-0.336 -0.123,-0.086 -0.268,-0.148 -0.432,-0.187 -0.164,-0.04 -0.336,-0.06 -0.513,-0.06 -0.275,0 -0.545,0.041 -0.813,0.123 -0.267,0.083 -0.507,0.198 -0.719,0.35 l 0.313,0.611 0.168,-0.12 c 0.08,-0.051 0.175,-0.1 0.285,-0.15 0.109,-0.049 0.231,-0.091 0.364,-0.125 0.134,-0.035 0.271,-0.051 0.412,-0.051 0.39,0 0.585,0.125 0.585,0.375 l -0.066,0.205 -0.19,0.144 c -0.083,0.041 -0.182,0.078 -0.298,0.113 -0.117,0.034 -0.247,0.07 -0.391,0.108 -0.175,0.047 -0.326,0.1 -0.455,0.156 -0.129,0.057 -0.235,0.123 -0.321,0.198 -0.085,0.076 -0.15,0.165 -0.193,0.267 -0.043,0.104 -0.064,0.225 -0.064,0.365 0,0.186 0.034,0.35 0.103,0.494 0.069,0.143 0.164,0.263 0.286,0.36 0.121,0.096 0.261,0.168 0.423,0.218 0.161,0.049 0.334,0.075 0.519,0.075 0.257,0 0.493,-0.041 0.709,-0.121 0.216,-0.081 0.404,-0.176 0.565,-0.285 l -0.313,-0.577" /><path
       inkscape:connector-curvature="0"
       id="path4525"
       style="fill:#fffbef;fill-opacity:1;fill-rule:nonzero;stroke:none;opacity:0.49999996"
       d="m 138.537,149.312 0.986,-2.758 0.977,2.758 0.745,0 -1.423,-3.648 -0.596,0 -1.434,3.648 0.745,0" /><path
       inkscape:connector-curvature="0"
       id="path4527"
       style="fill:#fffbef;fill-opacity:1;fill-rule:nonzero;stroke:none;opacity:0.49999996"
       d="m 145.191,146.286 0,-0.622 -2.533,0 0,3.648 2.487,0 0,-0.622 -1.778,0 0,-0.878 1.537,0 0,-0.576 -1.537,0 0,-0.95 1.824,0" /><path
       inkscape:connector-curvature="0"
       id="path4529"
       style="fill:#fffbef;fill-opacity:1;fill-rule:nonzero;stroke:none;opacity:0.49999996"
       d="m 146.574,147.515 c 0,0.222 0.039,0.441 0.117,0.66 0.08,0.217 0.194,0.411 0.342,0.582 0.15,0.172 0.332,0.31 0.547,0.417 0.217,0.106 0.463,0.159 0.74,0.159 0.326,0 0.608,-0.074 0.846,-0.221 0.238,-0.147 0.414,-0.34 0.527,-0.576 l -0.545,-0.375 c -0.041,0.104 -0.094,0.19 -0.16,0.26 l -0.213,0.167 -0.238,0.09 -0.236,0.028 c -0.168,0 -0.317,-0.036 -0.443,-0.107 -0.127,-0.073 -0.232,-0.166 -0.315,-0.281 -0.084,-0.115 -0.148,-0.245 -0.191,-0.39 -0.043,-0.146 -0.064,-0.29 -0.064,-0.435 0,-0.16 0.025,-0.316 0.074,-0.465 0.05,-0.148 0.12,-0.279 0.211,-0.392 0.091,-0.114 0.199,-0.204 0.326,-0.274 0.126,-0.068 0.266,-0.101 0.416,-0.101 l 0.242,0.03 0.239,0.098 0.214,0.172 c 0.064,0.07 0.117,0.155 0.158,0.254 l 0.581,-0.334 c -0.055,-0.136 -0.134,-0.257 -0.239,-0.363 -0.104,-0.103 -0.223,-0.191 -0.357,-0.264 -0.133,-0.072 -0.274,-0.126 -0.421,-0.164 -0.148,-0.039 -0.293,-0.056 -0.437,-0.056 -0.254,0 -0.485,0.054 -0.696,0.164 -0.21,0.109 -0.392,0.252 -0.544,0.429 -0.154,0.176 -0.272,0.377 -0.356,0.601 -0.084,0.224 -0.125,0.452 -0.125,0.687" /><path
       inkscape:connector-curvature="0"
       id="path4531"
       style="fill:#fffbef;fill-opacity:1;fill-rule:nonzero;stroke:none;opacity:0.49999996"
       d="m 153.968,148.69 -1.161,0 0,-3.026 -0.709,0 0,3.026 -1.167,0 0,0.622 3.037,0 0,-0.622" /><path
       inkscape:connector-curvature="0"
       id="path4533"
       style="fill:#fffbef;fill-opacity:1;fill-rule:nonzero;stroke:none;opacity:0.49999996"
       d="m 155.838,147.488 c 0,-0.157 0.023,-0.309 0.07,-0.458 0.046,-0.146 0.113,-0.277 0.2,-0.389 0.087,-0.114 0.195,-0.204 0.322,-0.273 0.127,-0.068 0.269,-0.103 0.431,-0.103 0.164,0 0.309,0.035 0.434,0.105 0.125,0.07 0.23,0.164 0.316,0.281 0.086,0.116 0.151,0.246 0.196,0.393 0.045,0.145 0.066,0.293 0.066,0.444 0,0.158 -0.023,0.31 -0.072,0.458 -0.047,0.147 -0.115,0.278 -0.202,0.39 -0.087,0.113 -0.195,0.203 -0.32,0.27 -0.125,0.067 -0.265,0.1 -0.424,0.1 -0.164,0 -0.308,-0.035 -0.433,-0.105 -0.125,-0.071 -0.232,-0.163 -0.318,-0.278 -0.088,-0.115 -0.155,-0.245 -0.199,-0.39 -0.044,-0.146 -0.067,-0.293 -0.067,-0.445 z m 1.013,-1.85 c -0.257,0 -0.492,0.052 -0.705,0.157 -0.212,0.104 -0.394,0.243 -0.546,0.417 -0.153,0.172 -0.27,0.37 -0.352,0.593 -0.083,0.222 -0.124,0.45 -0.124,0.683 0,0.243 0.044,0.476 0.132,0.699 0.087,0.222 0.209,0.419 0.364,0.591 0.155,0.171 0.34,0.307 0.552,0.409 0.213,0.101 0.444,0.152 0.694,0.152 0.257,0 0.491,-0.055 0.704,-0.162 0.213,-0.109 0.394,-0.25 0.545,-0.424 0.151,-0.176 0.267,-0.374 0.35,-0.597 0.082,-0.222 0.123,-0.448 0.123,-0.678 0,-0.243 -0.044,-0.475 -0.131,-0.696 -0.088,-0.221 -0.209,-0.416 -0.363,-0.586 -0.155,-0.17 -0.337,-0.304 -0.549,-0.406 -0.213,-0.102 -0.444,-0.152 -0.694,-0.152" /><path
       inkscape:connector-curvature="0"
       id="path4535"
       style="fill:#fffbef;fill-opacity:1;fill-rule:nonzero;stroke:none;opacity:0.49999996"
       d="m 160.874,147.509 0.89,0 0.181,0.047 0.147,0.125 0.097,0.187 0.037,0.232 -0.041,0.236 -0.111,0.188 -0.16,0.123 -0.182,0.043 -0.858,0 0,-1.181 z m -0.709,-1.845 0,3.648 1.613,0 c 0.168,0 0.324,-0.035 0.466,-0.105 0.142,-0.07 0.264,-0.163 0.367,-0.277 0.103,-0.115 0.183,-0.245 0.242,-0.391 0.057,-0.145 0.086,-0.292 0.086,-0.439 0,-0.237 -0.058,-0.452 -0.176,-0.645 -0.118,-0.194 -0.279,-0.333 -0.481,-0.419 l 0.859,-1.372 -0.803,0 -0.766,1.224 -0.698,0 0,-1.224 -0.709,0" /><path
       inkscape:connector-curvature="0"
       id="path4537"
       style="fill:#fffbef;fill-opacity:1;fill-rule:nonzero;stroke:none;opacity:0.49999996"
       d="m 107.484,140.483 -0.033,0.188 -0.09,0.156 -0.133,0.106 -0.169,0.039 -1.09,0 0,-0.961 1.052,0 0.184,0.035 0.147,0.1 0.097,0.152 0.035,0.185 z m -1.515,1.968 0,-0.92 0.945,0 c 0.12,0 0.223,0.042 0.307,0.124 0.083,0.082 0.125,0.196 0.125,0.338 0,0.141 -0.038,0.252 -0.116,0.335 -0.077,0.082 -0.171,0.123 -0.285,0.123 l -0.976,0 z m 2.23,-2.101 c 0,-0.155 -0.031,-0.29 -0.093,-0.407 -0.061,-0.116 -0.146,-0.214 -0.254,-0.292 -0.108,-0.08 -0.233,-0.139 -0.375,-0.18 -0.142,-0.041 -0.293,-0.062 -0.456,-0.062 l -1.761,0 0,3.649 1.953,0 c 0.126,0 0.24,-0.028 0.344,-0.082 0.102,-0.055 0.189,-0.126 0.261,-0.213 0.073,-0.088 0.128,-0.188 0.168,-0.299 0.039,-0.111 0.059,-0.223 0.059,-0.336 0,-0.179 -0.045,-0.346 -0.134,-0.502 -0.089,-0.155 -0.22,-0.272 -0.39,-0.346 0.208,-0.062 0.374,-0.173 0.496,-0.332 0.122,-0.159 0.182,-0.359 0.182,-0.598" /><path
       inkscape:connector-curvature="0"
       id="path4539"
       style="fill:#fffbef;fill-opacity:1;fill-rule:nonzero;stroke:none;opacity:0.49999996"
       d="m 111.066,142.292 -0.523,-1.475 1.032,0 -0.509,1.475 z m -1.726,-2.883 1.439,3.649 0.575,0 1.434,-3.649 -0.751,0 -0.334,0.91 -1.279,0 -0.334,-0.91 -0.75,0" /><path
       inkscape:connector-curvature="0"
       id="path4541"
       style="fill:#fffbef;fill-opacity:1;fill-rule:nonzero;stroke:none;opacity:0.49999996"
       d="m 113.99,141.259 c 0,0.222 0.039,0.443 0.118,0.66 0.08,0.218 0.193,0.412 0.342,0.584 0.15,0.171 0.331,0.309 0.547,0.416 0.216,0.105 0.463,0.159 0.74,0.159 0.326,0 0.607,-0.073 0.845,-0.222 0.238,-0.146 0.414,-0.337 0.527,-0.574 l -0.545,-0.375 c -0.041,0.102 -0.093,0.189 -0.159,0.259 l -0.214,0.167 -0.238,0.09 -0.236,0.028 c -0.168,0 -0.316,-0.036 -0.442,-0.108 -0.127,-0.072 -0.232,-0.164 -0.316,-0.28 -0.084,-0.115 -0.147,-0.245 -0.19,-0.39 -0.043,-0.147 -0.064,-0.291 -0.064,-0.435 0,-0.161 0.024,-0.315 0.074,-0.465 0.049,-0.149 0.119,-0.28 0.211,-0.393 0.09,-0.113 0.199,-0.203 0.326,-0.272 0.126,-0.068 0.266,-0.103 0.416,-0.103 l 0.242,0.031 0.239,0.098 0.213,0.172 c 0.064,0.07 0.118,0.155 0.159,0.254 l 0.581,-0.334 c -0.055,-0.137 -0.135,-0.258 -0.239,-0.362 -0.105,-0.105 -0.224,-0.193 -0.357,-0.265 -0.134,-0.072 -0.275,-0.126 -0.422,-0.164 -0.147,-0.038 -0.293,-0.057 -0.437,-0.057 -0.253,0 -0.484,0.055 -0.695,0.165 -0.211,0.109 -0.393,0.253 -0.545,0.429 -0.153,0.176 -0.272,0.377 -0.355,0.601 -0.084,0.225 -0.126,0.453 -0.126,0.686" /><path
       inkscape:connector-curvature="0"
       id="path4543"
       style="fill:#fffbef;fill-opacity:1;fill-rule:nonzero;stroke:none;opacity:0.49999996"
       d="m 118.677,139.409 0,3.643 0.709,0 0,-1.778 1.577,1.784 0.735,0 -1.397,-1.62 1.484,-2.029 -0.75,0 -1.161,1.629 -0.488,-0.529 0,-1.1 -0.709,0" /><path
       inkscape:connector-curvature="0"
       id="path4545"
       style="fill:#fffbef;fill-opacity:1;fill-rule:nonzero;stroke:none;opacity:0.49999996"
       d="m 125.578,139.82 c -0.281,-0.291 -0.605,-0.436 -0.972,-0.436 -0.233,0 -0.452,0.051 -0.657,0.154 -0.206,0.103 -0.385,0.24 -0.537,0.413 -0.152,0.173 -0.272,0.372 -0.359,0.599 -0.088,0.226 -0.132,0.461 -0.132,0.704 0,0.25 0.044,0.485 0.132,0.706 0.087,0.222 0.209,0.415 0.364,0.581 0.155,0.166 0.339,0.298 0.55,0.396 0.211,0.097 0.439,0.146 0.685,0.146 0.332,0 0.618,-0.072 0.854,-0.215 0.236,-0.144 0.414,-0.338 0.534,-0.582 l -0.529,-0.39 c -0.089,0.181 -0.212,0.32 -0.367,0.416 -0.156,0.096 -0.329,0.144 -0.517,0.144 -0.15,0 -0.287,-0.032 -0.408,-0.098 -0.122,-0.064 -0.226,-0.154 -0.311,-0.267 -0.086,-0.112 -0.152,-0.242 -0.201,-0.39 -0.048,-0.147 -0.072,-0.304 -0.072,-0.468 0,-0.171 0.026,-0.332 0.078,-0.48 0.051,-0.149 0.123,-0.278 0.215,-0.389 0.093,-0.109 0.201,-0.195 0.326,-0.259 0.125,-0.063 0.264,-0.094 0.414,-0.094 0.336,0 0.639,0.166 0.91,0.498 l 0,0.257 -0.735,0 0,0.518 1.321,0 0,-1.875 -0.586,0 0,0.411" /><path
       inkscape:connector-curvature="0"
       id="path4547"
       style="fill:#fffbef;fill-opacity:1;fill-rule:nonzero;stroke:none;opacity:0.49999996"
       d="m 128.512,141.254 0.888,0 0.183,0.046 0.146,0.127 0.098,0.187 0.036,0.231 -0.041,0.236 -0.111,0.188 -0.158,0.123 -0.183,0.045 -0.858,0 0,-1.183 z m -0.709,-1.845 0,3.649 1.613,0 c 0.168,0 0.322,-0.036 0.465,-0.106 0.142,-0.07 0.265,-0.162 0.367,-0.277 0.104,-0.115 0.184,-0.245 0.242,-0.391 0.059,-0.145 0.088,-0.292 0.088,-0.439 0,-0.237 -0.059,-0.451 -0.178,-0.645 -0.118,-0.193 -0.279,-0.334 -0.48,-0.419 l 0.857,-1.372 -0.8,0 -0.766,1.223 -0.699,0 0,-1.223 -0.709,0" /><path
       inkscape:connector-curvature="0"
       id="path4549"
       style="fill:#fffbef;fill-opacity:1;fill-rule:nonzero;stroke:none;opacity:0.49999996"
       d="m 132.756,141.233 c 0,-0.158 0.023,-0.31 0.069,-0.457 0.046,-0.147 0.113,-0.277 0.2,-0.39 0.088,-0.114 0.196,-0.204 0.322,-0.273 0.127,-0.069 0.27,-0.102 0.431,-0.102 0.165,0 0.31,0.035 0.435,0.105 0.125,0.071 0.23,0.163 0.316,0.28 0.085,0.117 0.151,0.248 0.196,0.393 0.044,0.146 0.066,0.294 0.066,0.444 0,0.159 -0.024,0.311 -0.072,0.457 -0.048,0.148 -0.115,0.278 -0.203,0.391 -0.087,0.113 -0.194,0.203 -0.319,0.27 -0.125,0.067 -0.266,0.1 -0.424,0.1 -0.164,0 -0.308,-0.035 -0.433,-0.105 -0.126,-0.071 -0.233,-0.163 -0.319,-0.278 -0.087,-0.114 -0.154,-0.245 -0.199,-0.39 -0.044,-0.146 -0.066,-0.294 -0.066,-0.445 z m 1.012,-1.849 c -0.256,0 -0.492,0.052 -0.704,0.156 -0.212,0.105 -0.394,0.243 -0.546,0.416 -0.154,0.174 -0.271,0.371 -0.353,0.594 -0.083,0.222 -0.124,0.451 -0.124,0.683 0,0.244 0.045,0.477 0.132,0.7 0.087,0.222 0.209,0.42 0.364,0.589 0.156,0.172 0.34,0.309 0.553,0.41 0.213,0.1 0.443,0.151 0.693,0.151 0.258,0 0.492,-0.054 0.705,-0.162 0.212,-0.108 0.393,-0.248 0.544,-0.424 0.152,-0.174 0.267,-0.373 0.35,-0.596 0.082,-0.222 0.123,-0.449 0.123,-0.677 0,-0.245 -0.044,-0.477 -0.131,-0.698 -0.087,-0.22 -0.208,-0.416 -0.362,-0.586 -0.155,-0.169 -0.338,-0.304 -0.55,-0.405 -0.212,-0.1 -0.444,-0.151 -0.694,-0.151" /><path
       inkscape:connector-curvature="0"
       id="path4551"
       style="fill:#fffbef;fill-opacity:1;fill-rule:nonzero;stroke:none;opacity:0.49999996"
       d="m 138.619,140.011 c 0.168,0 0.309,0.033 0.424,0.102 0.115,0.069 0.207,0.158 0.277,0.267 0.071,0.109 0.12,0.236 0.15,0.379 0.029,0.141 0.044,0.287 0.044,0.438 l 0,1.861 0.703,0 0,-1.861 c 0,-0.25 -0.029,-0.485 -0.09,-0.704 -0.06,-0.219 -0.154,-0.41 -0.282,-0.575 -0.128,-0.165 -0.294,-0.295 -0.495,-0.391 -0.204,-0.095 -0.445,-0.143 -0.725,-0.143 -0.291,0 -0.539,0.051 -0.743,0.151 -0.204,0.101 -0.369,0.235 -0.495,0.402 -0.127,0.166 -0.219,0.358 -0.276,0.578 -0.056,0.218 -0.085,0.446 -0.085,0.682 l 0,1.861 0.709,0 0,-1.861 c 0,-0.153 0.015,-0.301 0.044,-0.444 0.03,-0.143 0.078,-0.268 0.149,-0.378 0.07,-0.109 0.162,-0.198 0.275,-0.265 0.113,-0.066 0.252,-0.099 0.416,-0.099" /><path
       inkscape:connector-curvature="0"
       id="path4553"
       style="fill:#fffbef;fill-opacity:1;fill-rule:nonzero;stroke:none;opacity:0.49999996"
       d="m 142.663,141.747 0,-2.338 -0.709,0 0,3.649 0.55,0 1.901,-2.395 0,2.389 0.709,0 0,-3.643 -0.575,0 -1.876,2.338" /><path
       inkscape:connector-curvature="0"
       id="path4555"
       style="fill:#fffbef;fill-opacity:1;fill-rule:nonzero;stroke:none;opacity:0.49999996"
       d="m 149.313,141.238 c 0,0.175 -0.025,0.336 -0.073,0.484 -0.048,0.146 -0.118,0.273 -0.211,0.38 -0.091,0.106 -0.206,0.188 -0.341,0.247 -0.135,0.058 -0.289,0.088 -0.459,0.088 l -0.618,0 0,-2.407 0.618,0 c 0.173,0 0.329,0.032 0.464,0.094 0.135,0.061 0.248,0.147 0.339,0.254 0.091,0.107 0.16,0.235 0.208,0.383 0.048,0.146 0.073,0.306 0.073,0.477 z m -2.411,-1.829 0,3.649 1.327,0 c 0.296,0 0.558,-0.048 0.783,-0.145 0.224,-0.096 0.412,-0.226 0.562,-0.391 0.151,-0.164 0.264,-0.356 0.34,-0.577 0.074,-0.221 0.112,-0.456 0.112,-0.707 0,-0.277 -0.042,-0.528 -0.126,-0.753 -0.084,-0.224 -0.205,-0.416 -0.362,-0.575 -0.157,-0.159 -0.347,-0.282 -0.567,-0.37 -0.221,-0.088 -0.469,-0.131 -0.742,-0.131 l -1.327,0" /></g></svg>