<?xml version="1.0" encoding="UTF-8" standalone="no"?>
<!-- Created with Inkscape (http://www.inkscape.org/) -->

<svg
   xmlns:dc="http://purl.org/dc/elements/1.1/"
   xmlns:cc="http://creativecommons.org/ns#"
   xmlns:rdf="http://www.w3.org/1999/02/22-rdf-syntax-ns#"
   xmlns:svg="http://www.w3.org/2000/svg"
   xmlns="http://www.w3.org/2000/svg"
   xmlns:sodipodi="http://sodipodi.sourceforge.net/DTD/sodipodi-0.dtd"
   xmlns:inkscape="http://www.inkscape.org/namespaces/inkscape"
   width="17"
   height="40"
   viewBox="0 0 17 39.999999"
   id="svg4192"
   version="1.1"
   inkscape:version="0.91 r13725"
   sodipodi:docname="puce.svg"
   inkscape:export-filename="/home/anne-laure/Documents/Smoky-Truck-Project/img/puce.svg.png"
   inkscape:export-xdpi="90"
   inkscape:export-ydpi="90">
  <defs
     id="defs4194" />
  <sodipodi:namedview
     id="base"
     pagecolor="#ffffff"
     bordercolor="#666666"
     borderopacity="1.0"
     inkscape:pageopacity="0.0"
     inkscape:pageshadow="2"
     inkscape:zoom="1.52"
     inkscape:cx="-177.85164"
     inkscape:cy="50.753295"
     inkscape:document-units="px"
     inkscape:current-layer="layer1"
     showgrid="false"
     inkscape:window-width="1301"
     inkscape:window-height="744"
     inkscape:window-x="65"
     inkscape:window-y="24"
     inkscape:window-maximized="1"
     units="px" />
  <metadata
     id="metadata4197">
    <rdf:RDF>
      <cc:Work
         rdf:about="">
        <dc:format>image/svg+xml</dc:format>
        <dc:type
           rdf:resource="http://purl.org/dc/dcmitype/StillImage" />
        <dc:title></dc:title>
      </cc:Work>
    </rdf:RDF>
  </metadata>
  <g
     inkscape:label="Calque 1"
     inkscape:groupmode="layer"
     id="layer1"
     transform="translate(0,-1012.3622)">
    <path
       inkscape:connector-curvature="0"
       id="path6036-7-9"
       style="display:inline;opacity:1;fill:#b3b3b3;fill-opacity:1;fill-rule:nonzero;stroke:none"
       d="m 6.961626,1041.6442 c -3.0574222,-0.2465 -4.734918,-1.7166 -4.5891595,-3.3365 0.2505791,-2.7796 5.6995825,-4.8232 7.4824915,-7.2669 1.381733,-1.894 -1.951499,-3.1285 -3.3714694,-4.685 -1.2755251,-1.3985 -1.7053024,-2.9746 -1.302521,-4.5139 0.4932747,-1.8856 1.9564566,-3.7043 4.7761444,-4.8919 0.708438,-0.2989 1.720331,0.031 1.235407,0.5106 -2.295445,2.2661 -3.2274994,4.7139 -1.120742,7.1236 1.456429,1.6654 4.473227,2.7812 5.212771,4.6583 0.709666,1.7991 -0.889571,3.6545 -3.236313,4.8957 -1.381371,0.7315 -3.182012,1.0347 -4.6860785,1.6772 -2.4372049,1.0414 -4.991076,4.2302 0.1149315,4.8633 1.053222,0.1295 0.4722548,1.0453 -0.5154611,0.9655 l 0,0" />
  </g>
</svg>
