<?xml version="1.0" encoding="UTF-8" standalone="no"?>
<!-- Created with Inkscape (http://www.inkscape.org/) -->

<svg
   xmlns:dc="http://purl.org/dc/elements/1.1/"
   xmlns:cc="http://creativecommons.org/ns#"
   xmlns:rdf="http://www.w3.org/1999/02/22-rdf-syntax-ns#"
   xmlns:svg="http://www.w3.org/2000/svg"
   xmlns="http://www.w3.org/2000/svg"
   xmlns:xlink="http://www.w3.org/1999/xlink"
   xmlns:sodipodi="http://sodipodi.sourceforge.net/DTD/sodipodi-0.dtd"
   xmlns:inkscape="http://www.inkscape.org/namespaces/inkscape"
   id="svg3971"
   version="1.1"
   inkscape:version="0.91 r13725"
   xml:space="preserve"
   width="400"
   height="400"
   viewBox="0 0 400 400"
   sodipodi:docname="smoky_logo.svg"
   inkscape:export-filename="/home/anne-laure/Bureau/smoky_logo.svg.png"
   inkscape:export-xdpi="90"
   inkscape:export-ydpi="90"><metadata
     id="metadata3977"><rdf:RDF><cc:Work
         rdf:about=""><dc:format>image/svg+xml</dc:format><dc:type
           rdf:resource="http://purl.org/dc/dcmitype/StillImage" /><dc:title /></cc:Work></rdf:RDF></metadata><defs
     id="defs3975"><marker
       inkscape:stockid="Arrow2Lend"
       orient="auto"
       refY="0"
       refX="0"
       id="Arrow2Lend"
       style="overflow:visible"
       inkscape:isstock="true"><path
         id="path4492"
         style="fill:#8e0505;fill-opacity:1;fill-rule:evenodd;stroke:none;stroke-width:0.625;stroke-linejoin:round;stroke-opacity:1"
         d="M 8.7185878,4.0337352 -2.2072895,0.01601326 8.7185884,-4.0017078 c -1.7454984,2.3720609 -1.7354408,5.6174519 -6e-7,8.035443 z"
         transform="matrix(-1.1,0,0,-1.1,-1.1,0)"
         inkscape:connector-curvature="0" /></marker><linearGradient
       inkscape:collect="always"
       id="linearGradient5645"><stop
         style="stop-color:#f9f7f1;stop-opacity:1;"
         offset="0"
         id="stop5647" /><stop
         style="stop-color:#f9f7f1;stop-opacity:0;"
         offset="1"
         id="stop5649" /></linearGradient><linearGradient
       inkscape:collect="always"
       xlink:href="#linearGradient5645"
       id="linearGradient5651"
       x1="-0.5"
       y1="2568.856"
       x2="5000.5"
       y2="2568.856"
       gradientUnits="userSpaceOnUse" /><clipPath
       clipPathUnits="userSpaceOnUse"
       id="clipPath3825"><path
         d="M 0,500 500,500 500,0 0,0 0,500 Z"
         id="path3827"
         inkscape:connector-curvature="0" /></clipPath><marker
       inkscape:stockid="Arrow2Lend"
       orient="auto"
       refY="0"
       refX="0"
       id="Arrow2Lend-3"
       style="overflow:visible"
       inkscape:isstock="true"><path
         inkscape:connector-curvature="0"
         id="path4492-6"
         style="fill:#8e0505;fill-opacity:1;fill-rule:evenodd;stroke:#000000;stroke-width:0.625;stroke-linejoin:round;stroke-opacity:1"
         d="M 8.7185878,4.0337352 -2.2072895,0.01601326 8.7185884,-4.0017078 c -1.7454984,2.3720609 -1.7354408,5.6174519 -6e-7,8.035443 z"
         transform="matrix(-1.1,0,0,-1.1,-1.1,0)" /></marker><marker
       inkscape:stockid="Arrow2Lend"
       orient="auto"
       refY="0"
       refX="0"
       id="Arrow2Lend-7"
       style="overflow:visible"
       inkscape:isstock="true"><path
         inkscape:connector-curvature="0"
         id="path4492-5"
         style="fill:#8e0505;fill-opacity:1;fill-rule:evenodd;stroke:none;stroke-width:0.625;stroke-linejoin:round;stroke-opacity:1"
         d="M 8.7185878,4.0337352 -2.2072895,0.01601326 8.7185884,-4.0017078 c -1.7454984,2.3720609 -1.7354408,5.6174519 -6e-7,8.035443 z"
         transform="matrix(-1.1,0,0,-1.1,-1.1,0)" /></marker><marker
       inkscape:stockid="Arrow2Lend"
       orient="auto"
       refY="0"
       refX="0"
       id="Arrow2Lend-6"
       style="overflow:visible"
       inkscape:isstock="true"><path
         inkscape:connector-curvature="0"
         id="path4492-9"
         style="fill:#8e0505;fill-opacity:1;fill-rule:evenodd;stroke:none;stroke-width:0.625;stroke-linejoin:round;stroke-opacity:1"
         d="M 8.7185878,4.0337352 -2.2072895,0.01601326 8.7185884,-4.0017078 c -1.7454984,2.3720609 -1.7354408,5.6174519 -6e-7,8.035443 z"
         transform="matrix(-1.1,0,0,-1.1,-1.1,0)" /></marker><filter
       inkscape:collect="always"
       style="color-interpolation-filters:sRGB"
       id="filter6723"
       x="-0.028833814"
       width="1.0576676"
       y="-0.020554211"
       height="1.0411084"><feGaussianBlur
         inkscape:collect="always"
         stdDeviation="1.08295"
         id="feGaussianBlur6725" /></filter></defs><sodipodi:namedview
     pagecolor="#ffffff"
     bordercolor="#666666"
     borderopacity="1"
     objecttolerance="10"
     gridtolerance="10"
     guidetolerance="10"
     inkscape:pageopacity="0"
     inkscape:pageshadow="2"
     inkscape:window-width="1301"
     inkscape:window-height="744"
     id="namedview3973"
     showgrid="false"
     inkscape:zoom="0.87885424"
     inkscape:cx="-42.005382"
     inkscape:cy="221.00871"
     inkscape:window-x="65"
     inkscape:window-y="24"
     inkscape:window-maximized="1"
     inkscape:current-layer="g3981"
     showguides="false" /><g
     id="g3979"
     inkscape:groupmode="layer"
     inkscape:label="ink_ext_XXXXXX"
     transform="matrix(1.25,0,0,-1.25,0,400)"><g
       id="g3981"
       transform="scale(0.1,0.1)"
       style="display:inline"><path
         d="m 0,68.855932 5000,0 0,4999.999968 -5000,0 L 0,68.855932 Z"
         style="fill:none;fill-opacity:0;fill-rule:nonzero;stroke:url(#linearGradient5651);stroke-opacity:1"
         id="path3983"
         inkscape:connector-curvature="0" /><g
         style="display:inline;fill:#b3b3b3"
         id="g4479-3-8-8"
         transform="matrix(17.283061,0,0,17.283061,-4370.5856,1224.8242)"><text
           transform="matrix(1.005594,-0.02518117,-0.00124352,-0.99440595,0,0)"
           style="font-style:normal;font-variant:normal;font-weight:normal;font-stretch:normal;font-size:19.80557442px;font-family:FreeMono;-inkscape-font-specification:FreeMono;text-align:center;writing-mode:lr-tb;text-anchor:middle;fill:#b3b3b3;fill-opacity:1;fill-rule:nonzero;stroke:none"
           id="text4481-6-3-9"
           x="344.44424"
           y="-83.157341"><tspan
             x="344.44424"
             y="-83.157341"
             sodipodi:role="line"
             id="tspan4485-5-0-7"
             style="font-style:normal;font-variant:normal;font-weight:bold;font-stretch:normal;font-size:10.41482162px;font-family:FreeMono;-inkscape-font-specification:'FreeMono Bold';text-align:center;text-anchor:middle;fill:#b3b3b3;fill-opacity:1">Pizza poet</tspan><tspan
             x="344.44424"
             y="-70.138817"
             sodipodi:role="line"
             style="font-style:normal;font-variant:normal;font-weight:normal;font-stretch:normal;font-size:14px;font-family:FreeMono;-inkscape-font-specification:FreeMono;text-align:center;text-anchor:middle;fill:#b3b3b3;fill-opacity:1"
             id="tspan7251-3" /></text>
</g><path
         d="m 1586.5237,2915.3056 c -748.6097,0 -1357.64487,-601.7361 -1357.64487,-1341.3764 0,-739.6213 609.03517,-1341.37918 1357.64487,-1341.37918 748.6046,0 1357.6425,601.75788 1357.6425,1341.37918 0,739.6403 -609.0379,1341.3764 -1357.6425,1341.3764 z m 0,-2741.3663 c -781.3249,0 -1416.98531,628.0258 -1416.98531,1399.9899 0,771.9644 635.66041,1400.0101 1416.98531,1400.0101 781.3197,0 1416.9801,-628.0457 1416.9801,-1400.0101 0,-771.9641 -635.6604,-1399.9899 -1416.9801,-1399.9899"
         style="display:inline;fill:#012051;fill-opacity:1;fill-rule:nonzero;stroke:none"
         id="path3561-0-9-6"
         inkscape:connector-curvature="0" /><path
         d="m 1742.9268,1281.6716 c -10.98,0 -19.87,12.49 -19.87,27.88 0,15.4 8.89,27.88 19.87,27.88 10.98,0 19.88,-12.48 19.88,-27.88 0,-15.39 -8.9,-27.88 -19.88,-27.88 z m 0,91.29 c -24.89,0 -45.07,-28.31 -45.07,-63.22 0,-34.92 20.18,-63.23 45.07,-63.23 24.89,0 45.07,28.31 45.07,63.23 0,34.91 -20.18,63.22 -45.07,63.22"
         style="fill:#012051;fill-opacity:1;fill-rule:nonzero;stroke:none;filter:url(#filter6723)"
         id="path3577-7-9"
         inkscape:connector-curvature="0"
         transform="matrix(1.7283061,0,0,1.7283061,-1036.0215,-1039.2267)" /><path
         d="m 2098.5135,2073.3012 0,-564.3639 -143.2066,0 -59.8001,564.3639 203.0067,0 z m -122.2246,-711.6851 c 54.0303,0 97.8248,-61.4383 97.8248,-137.2102 0,-4.9762 -0.2096,-9.8845 -0.5892,-14.7418 l 307.5535,0 -39.9575,299.2732 -180.3696,0 0,637.869 -1287.2435,-95.575 0,-841.5672 134.5689,0 c -0.3627,4.8573 -0.5724,9.7656 -0.5724,14.7418 0,75.7719 43.7777,137.2102 97.808,137.2102 54.0247,0 97.8194,-61.4383 97.8194,-137.2102 0,-4.9762 -0.2043,-9.8845 -0.5894,-14.7418 l 676.5114,0 c -0.3633,4.8573 -0.5674,9.7656 -0.5674,14.7418 0,75.7719 43.7773,137.2102 97.8024,137.2102"
         style="fill:#b3b3b3;fill-opacity:1;fill-rule:nonzero;stroke:none"
         id="path3579-8-1"
         inkscape:connector-curvature="0" /><path
         d="m 1105.3119,1175.8957 c -18.9641,0 -34.341,21.5827 -34.341,48.1814 0,26.6159 15.3769,48.1871 34.341,48.1871 18.9756,0 34.3576,-21.5712 34.3576,-48.1871 0,-26.5987 -15.382,-48.1814 -34.3576,-48.1814 z m 0,157.7783 c -43.0183,0 -77.8973,-48.9295 -77.8973,-109.2681 0,-60.3501 34.879,-109.2796 77.8973,-109.2796 43.0179,0 77.8914,48.9295 77.8914,109.2796 0,60.3386 -34.8735,109.2681 -77.8914,109.2681"
         style="fill:#012051;fill-opacity:1;fill-rule:nonzero;stroke:none"
         id="path3581-5-9"
         inkscape:connector-curvature="0" /><path
         d="m 1589.6027,2833.1341 c -691.1141,0 -1253.37583,-562.2634 -1253.37583,-1253.3773 0,-691.1016 562.26173,-1253.37989 1253.37583,-1253.37989 691.119,0 1253.3769,562.27829 1253.3769,1253.37989 0,691.1139 -562.2579,1253.3773 -1253.3769,1253.3773 z m 0,-2561.52214 c -721.3177,0 -1308.15957,586.82744 -1308.15957,1308.14484 0,721.3175 586.84187,1308.1583 1308.15957,1308.1583 721.3172,0 1308.1632,-586.8408 1308.1632,-1308.1583 0,-721.3174 -586.846,-1308.14484 -1308.1632,-1308.14484"
         style="display:inline;fill:#cccccc;fill-opacity:1;fill-rule:nonzero;stroke:none;stroke-opacity:1"
         id="path3561-2-4"
         inkscape:connector-curvature="0" /><path
         d="m 367.25658,875.7588 2565.17382,306.7275 0,-587.32876 -2565.17382,-317.42353 0,598.02479"
         style="display:inline;fill:#012051;fill-opacity:1;fill-rule:nonzero;stroke:none;stroke-width:0.82544577;stroke-opacity:1"
         id="path4087-3-8-5"
         inkscape:connector-curvature="0" /><g
         style="display:inline"
         id="g4089-4-9-0"
         transform="matrix(17.283062,0,0,20.129426,-532.33795,-6088.9673)"><text
           transform="matrix(1,0.12037099,0,-1,0,0)"
           style="font-style:normal;font-variant:normal;font-weight:normal;font-stretch:normal;font-size:15.99999905px;font-family:FreeMono;-inkscape-font-specification:FreeMono;writing-mode:lr-tb;fill:#f58c63;fill-opacity:1;fill-rule:nonzero;stroke:none"
           id="text4091-90-6-3"
           x="57.551655"
           y="-318.60062"><tspan
             sodipodi:role="line"
             id="tspan4093-2-0-6"
             x="57.551655"
             y="-318.60062"
             style="font-style:normal;font-variant:normal;font-weight:bold;font-stretch:normal;font-size:20.38530159px;line-height:99.00000095%;font-family:FreeMono;-inkscape-font-specification:'FreeMono Bold';fill:#ffffff;fill-opacity:1;stroke:#800000;stroke-opacity:0">Smoky Truck</tspan></text>
</g><path
         inkscape:connector-curvature="0"
         id="path6036"
         style="fill:#999999;fill-opacity:1;fill-rule:nonzero;stroke:none;opacity:0.68"
         d="m 2245.1778,2171.1369 c -31.1261,2.4097 -48.2039,16.7687 -46.72,32.593 2.551,27.1515 58.0247,47.1139 76.1755,70.9863 14.0668,18.5014 -19.8672,30.5584 -34.3232,45.7638 -12.9855,13.6602 -17.3609,29.0569 -13.2604,44.0934 5.0218,18.4171 19.9177,36.183 48.6236,47.7851 7.2123,2.9178 17.5138,-0.311 12.577,-4.9882 -23.3687,-22.1357 -32.8575,-46.0482 -11.4097,-69.5874 14.8272,-16.2654 45.5397,-27.1636 53.0687,-45.5009 7.2247,-17.575 -9.0563,-35.6979 -32.9473,-47.825 -14.0631,-7.1445 -32.3945,-10.1057 -47.7066,-16.3815 -24.812,-10.1726 -50.8117,-41.3229 1.17,-47.5051 10.7223,-1.2691 4.8078,-10.2125 -5.2476,-9.4335 l 0,0" /><flowRoot
         xml:space="preserve"
         id="flowRoot6748"
         style="fill:black;stroke:none;stroke-opacity:1;stroke-width:1px;stroke-linejoin:miter;stroke-linecap:butt;fill-opacity:1;font-family:sans-serif;font-style:normal;font-weight:normal;font-size:40px;line-height:125%;letter-spacing:0px;word-spacing:0px"><flowRegion
           id="flowRegion6750"><rect
             id="rect6752"
             width="510.08478"
             height="498.17618"
             x="63.512501"
             y="-129.93243" /></flowRegion><flowPara
           id="flowPara6754" /></flowRoot><flowRoot
         xml:space="preserve"
         id="flowRoot6756"
         style="fill:black;stroke:none;stroke-opacity:1;stroke-width:1px;stroke-linejoin:miter;stroke-linecap:butt;fill-opacity:1;font-family:sans-serif;font-style:normal;font-weight:normal;font-size:40px;line-height:125%;letter-spacing:0px;word-spacing:0px"><flowRegion
           id="flowRegion6758"><rect
             id="rect6760"
             width="55.573441"
             height="117.10117"
             x="-7.9390626"
             y="-282.7594" /></flowRegion><flowPara
           id="flowPara6762" /></flowRoot></g></g></svg>