<?xml version="1.0" encoding="UTF-8" standalone="no"?>
<!-- Created with Inkscape (http://www.inkscape.org/) -->

<svg
   xmlns:dc="http://purl.org/dc/elements/1.1/"
   xmlns:cc="http://creativecommons.org/ns#"
   xmlns:rdf="http://www.w3.org/1999/02/22-rdf-syntax-ns#"
   xmlns:svg="http://www.w3.org/2000/svg"
   xmlns="http://www.w3.org/2000/svg"
   xmlns:xlink="http://www.w3.org/1999/xlink"
   xmlns:sodipodi="http://sodipodi.sourceforge.net/DTD/sodipodi-0.dtd"
   xmlns:inkscape="http://www.inkscape.org/namespaces/inkscape"
   id="svg3971"
   version="1.1"
   inkscape:version="0.91 r13725"
   xml:space="preserve"
   width="400"
   height="265"
   viewBox="0 0 400 265"
   sodipodi:docname="smoky_logo.svg"
   inkscape:export-filename="/home/anne-laure/Bureau/smoky_logo.svg.png"
   inkscape:export-xdpi="90"
   inkscape:export-ydpi="90"><metadata
     id="metadata3977"><rdf:RDF><cc:Work
         rdf:about=""><dc:format>image/svg+xml</dc:format><dc:type
           rdf:resource="http://purl.org/dc/dcmitype/StillImage" /><dc:title></dc:title></cc:Work></rdf:RDF></metadata><defs
     id="defs3975"><marker
       inkscape:stockid="Arrow2Lend"
       orient="auto"
       refY="0"
       refX="0"
       id="Arrow2Lend"
       style="overflow:visible"
       inkscape:isstock="true"><path
         id="path4492"
         style="fill:#8e0505;fill-opacity:1;fill-rule:evenodd;stroke:none;stroke-width:0.625;stroke-linejoin:round;stroke-opacity:1"
         d="M 8.7185878,4.0337352 -2.2072895,0.01601326 8.7185884,-4.0017078 c -1.7454984,2.3720609 -1.7354408,5.6174519 -6e-7,8.035443 z"
         transform="matrix(-1.1,0,0,-1.1,-1.1,0)"
         inkscape:connector-curvature="0" /></marker><linearGradient
       inkscape:collect="always"
       id="linearGradient5645"><stop
         style="stop-color:#f9f7f1;stop-opacity:1;"
         offset="0"
         id="stop5647" /><stop
         style="stop-color:#f9f7f1;stop-opacity:0;"
         offset="1"
         id="stop5649" /></linearGradient><linearGradient
       inkscape:collect="always"
       xlink:href="#linearGradient5645"
       id="linearGradient5651"
       x1="-0.5"
       y1="2568.856"
       x2="5000.5"
       y2="2568.856"
       gradientUnits="userSpaceOnUse" /><clipPath
       clipPathUnits="userSpaceOnUse"
       id="clipPath3825"><path
         d="M 0,500 500,500 500,0 0,0 0,500 Z"
         id="path3827"
         inkscape:connector-curvature="0" /></clipPath><marker
       inkscape:stockid="Arrow2Lend"
       orient="auto"
       refY="0"
       refX="0"
       id="Arrow2Lend-3"
       style="overflow:visible"
       inkscape:isstock="true"><path
         inkscape:connector-curvature="0"
         id="path4492-6"
         style="fill:#8e0505;fill-opacity:1;fill-rule:evenodd;stroke:#000000;stroke-width:0.625;stroke-linejoin:round;stroke-opacity:1"
         d="M 8.7185878,4.0337352 -2.2072895,0.01601326 8.7185884,-4.0017078 c -1.7454984,2.3720609 -1.7354408,5.6174519 -6e-7,8.035443 z"
         transform="matrix(-1.1,0,0,-1.1,-1.1,0)" /></marker><marker
       inkscape:stockid="Arrow2Lend"
       orient="auto"
       refY="0"
       refX="0"
       id="Arrow2Lend-7"
       style="overflow:visible"
       inkscape:isstock="true"><path
         inkscape:connector-curvature="0"
         id="path4492-5"
         style="fill:#8e0505;fill-opacity:1;fill-rule:evenodd;stroke:none;stroke-width:0.625;stroke-linejoin:round;stroke-opacity:1"
         d="M 8.7185878,4.0337352 -2.2072895,0.01601326 8.7185884,-4.0017078 c -1.7454984,2.3720609 -1.7354408,5.6174519 -6e-7,8.035443 z"
         transform="matrix(-1.1,0,0,-1.1,-1.1,0)" /></marker><marker
       inkscape:stockid="Arrow2Lend"
       orient="auto"
       refY="0"
       refX="0"
       id="Arrow2Lend-6"
       style="overflow:visible"
       inkscape:isstock="true"><path
         inkscape:connector-curvature="0"
         id="path4492-9"
         style="fill:#8e0505;fill-opacity:1;fill-rule:evenodd;stroke:none;stroke-width:0.625;stroke-linejoin:round;stroke-opacity:1"
         d="M 8.7185878,4.0337352 -2.2072895,0.01601326 8.7185884,-4.0017078 c -1.7454984,2.3720609 -1.7354408,5.6174519 -6e-7,8.035443 z"
         transform="matrix(-1.1,0,0,-1.1,-1.1,0)" /></marker><clipPath
       clipPathUnits="userSpaceOnUse"
       id="clipPath7797"><path
         d="m 5854.74,5381.71 -0.01,0 c -42.49,0 -85,11.64 -122.52,34.89 l -288.6,143.62 0.98,0.94 1.68,3.11 0.11,0.49 c 1.6,-1.33 2.19,-3.06 2.21,-3.37 0.45,3.97 1.19,10.58 -4.04,13.31 -0.93,0.49 -2.09,0.88 -3.46,0.88 -1.96,0 -4.34,-0.78 -7.09,-3.14 l -2.13,-5.26 0.71,-1.04 c -0.05,-0.12 -0.1,-0.24 -0.14,-0.36 l -17.45,8.68 4.72,0.5 1.61,1.54 c 4.62,5.26 5.16,14.78 1.13,19.98 -1.89,2.45 -4.55,3.73 -7.41,3.73 -1.6,0 -3.26,-0.4 -4.87,-1.22 l -2.18,-9.39 c -0.28,0.35 -0.47,0.79 -0.64,0.79 -0.1,0 -0.19,-0.14 -0.28,-0.53 -0.76,-2.08 -2.69,-7.5 1.23,-12.07 l -4.12,2.05 c -1.15,3.89 -4.18,9.63 -9.23,11.31 -0.97,0.32 -1.93,0.48 -2.88,0.48 -2.26,0 -4.42,-0.89 -6.28,-2.63 l -885.91,440.86 -0.61,0.38 c -36.35,22.68 -63.81,53.11 -82.05,87.29 -18.26,34.18 -27.35,72.09 -27.36,109.98 0.01,37.89 9.1,75.8 27.36,109.98 18.24,34.18 45.7,64.61 82.05,87.29 l 0.62,0.38 621.58,309.33 c 0.81,-2.03 2.32,-3.75 4.42,-4.89 1.71,-0.93 3.65,-1.37 5.57,-1.37 3.19,0 6.33,1.23 8.36,3.53 2.13,2.44 3.43,6.69 0.68,11.42 l -1.3,0.13 151.26,75.27 c 2.81,-2.8 6.81,-4.62 11.27,-5.03 0.6,-0.05 1.18,-0.08 1.75,-0.08 3.76,0 6.82,1.17 8.77,3.39 2.47,2.81 2.61,6.78 0.44,10.12 l -4.21,0.57 382.48,190.34 c 1.84,-0.98 3.72,-1.63 5.39,-1.87 0.54,-0.07 1.05,-0.11 1.54,-0.11 3.32,0 5.28,1.62 6.21,2.68 l 0.02,0.02 c 1.03,1.18 2.32,3.38 1.76,6.71 l 14.7,7.31 -2.88,-8.78 c 1.07,-1.01 1.58,-2.03 2.24,-3.31 1.35,-2.67 3.84,-7.55 11.66,-7.55 0.38,0 0.77,0.01 1.18,0.03 l 3.66,1.47 1.92,1.85 c 5.87,6.68 2.23,13.52 0.48,16.82 -0.5,1 -1.17,2.2 -1.26,2.8 l -6.38,1.04 c 0.51,0.51 0.95,1.05 1.33,1.61 23.77,14.68 49.53,24.71 76.01,30.07 1.16,-0.64 2.38,-1.18 3.58,-1.54 1.37,-0.43 2.6,-0.6 3.68,-0.6 3.45,0 5.44,1.76 6.25,2.68 l -1.74,1.53 c 11.4,1.71 22.91,2.56 34.41,2.56 l 0.01,0 c 26.95,0 53.92,-4.68 79.61,-14.04 l -8.25,-2.27 -2.48,-3.86 c -3.65,-5.64 -7.92,-12.22 -8.17,-19.14 -19.74,6.21 -40.22,9.31 -60.71,9.31 -37.23,-0.01 -74.44,-10.24 -107.26,-30.73 l -0.62,-0.38 -37.35,-18.6 c 0.95,1.9 1.33,4.17 1.11,6.78 l -1.39,3.46 c -3.57,4.34 -7.43,5.32 -10.04,5.36 -0.07,0 -0.15,0 -0.22,0 -3.6,0 -7.08,-1.72 -9.83,-4.84 -3.95,-4.52 -6.43,-12.41 -3.22,-18.15 l 8.23,-0.25 -348.07,-173.21 c -0.44,0.3 -0.91,0.6 -1.43,0.88 l -7.72,-1.37 -3.62,-4.11 0,-1.75 -55.76,-27.75 1.12,4.66 c -1.24,3.55 -3.56,10.19 -9.44,11.53 -0.51,0.12 -1.16,0.22 -1.92,0.22 -1.89,0 -4.42,-0.62 -6.91,-3.11 l -0.8,-7.89 -0.38,1.38 -0.07,-8.57 4.16,-3.65 3.33,0 -523.05,-260.29 c 0.88,2.06 1.29,4.38 1.11,6.79 -0.34,4.52 -2.63,8.88 -6.24,11.89 l -8.07,0.01 c -9.68,-8.21 -7.2,-16.14 -5.29,-21.31 l -1.75,0.08 c -4.06,-1.96 -7.27,-6.81 -8.13,-11.58 l -200.66,-99.86 c -31.58,-19.87 -55.09,-46.08 -70.87,-75.59 -15.86,-29.69 -23.82,-62.76 -23.81,-95.85 -0.01,-33.09 7.95,-66.16 23.81,-95.85 15.78,-29.51 39.29,-55.73 70.87,-75.6 l 1231.66,-612.91 -6.68,-13.43 -7.95,-12.73 0,0 7.95,12.73 6.68,13.43 0.64,-0.32 0.62,-0.39 c 32.82,-20.49 70.03,-30.73 107.26,-30.73 37.23,0 74.43,10.24 107.26,30.73 l 0.62,0.39 1232.29,613.23 c 31.58,19.87 55.1,46.09 70.88,75.6 15.86,29.69 23.82,62.76 23.81,95.85 0.01,33.09 -7.95,66.16 -23.81,95.85 -15.78,29.51 -39.3,55.72 -70.87,75.59 L 6115.72,6936 c 0.18,0.47 0.39,0.98 0.66,1.52 l 0.02,0.05 0.01,0.02 -2.54,1.26 c 0.12,1.29 0.41,3.25 0.54,4.14 0.4,2.58 0.94,6.15 -2.62,8.36 l -6.83,-0.13 c -1.95,-1.31 -3.74,-3.46 -5.44,-5.84 -0.21,-0.31 -0.43,-0.61 -0.71,-0.97 l -136.2,67.79 -0.62,0.38 c -8.85,5.52 -18.02,10.3 -27.42,14.34 1.11,0.94 2.17,1.98 3.15,3.1 4.78,5.44 6.92,11.81 5.87,17.47 -0.62,3.46 -2.72,8.29 -9.13,11.73 14.76,-5.39 29.11,-12.32 42.79,-20.8 l 361.27,-179.78 c 0.04,-0.16 0.09,-0.32 0.13,-0.49 l 0.94,-0.05 869.99,-432.94 0.61,-0.38 c 36.35,-22.68 63.81,-53.11 82.05,-87.29 18.25,-34.18 27.35,-72.09 27.35,-109.98 0,-37.89 -9.1,-75.8 -27.35,-109.98 -18.24,-34.18 -45.7,-64.61 -82.05,-87.29 l -0.61,-0.38 -1232.33,-613.26 c -37.52,-23.25 -80.03,-34.89 -122.51,-34.89 m 1255.73,623.16 c -0.09,0 -0.18,0 -0.28,0 -2.41,-0.07 -6.04,-0.95 -9.51,-4.9 l -1.17,-1.48 0.93,-8.44 6.18,-5.43 8.84,0.58 5.46,6.22 -0.19,8.47 c -3.23,3.34 -6.64,4.98 -10.26,4.98 m 91.77,38.09 0,0 m -1758.75,-482.68 -0.87,0.44 1.37,3.4 c 0.6,-0.76 0.53,-1.88 -0.5,-3.84"
         id="path7799"
         inkscape:connector-curvature="0" /></clipPath><clipPath
       clipPathUnits="userSpaceOnUse"
       id="clipPath7797-3"><path
         d="m 5854.74,5381.71 -0.01,0 c -42.49,0 -85,11.64 -122.52,34.89 l -288.6,143.62 0.98,0.94 1.68,3.11 0.11,0.49 c 1.6,-1.33 2.19,-3.06 2.21,-3.37 0.45,3.97 1.19,10.58 -4.04,13.31 -0.93,0.49 -2.09,0.88 -3.46,0.88 -1.96,0 -4.34,-0.78 -7.09,-3.14 l -2.13,-5.26 0.71,-1.04 c -0.05,-0.12 -0.1,-0.24 -0.14,-0.36 l -17.45,8.68 4.72,0.5 1.61,1.54 c 4.62,5.26 5.16,14.78 1.13,19.98 -1.89,2.45 -4.55,3.73 -7.41,3.73 -1.6,0 -3.26,-0.4 -4.87,-1.22 l -2.18,-9.39 c -0.28,0.35 -0.47,0.79 -0.64,0.79 -0.1,0 -0.19,-0.14 -0.28,-0.53 -0.76,-2.08 -2.69,-7.5 1.23,-12.07 l -4.12,2.05 c -1.15,3.89 -4.18,9.63 -9.23,11.31 -0.97,0.32 -1.93,0.48 -2.88,0.48 -2.26,0 -4.42,-0.89 -6.28,-2.63 l -885.91,440.86 -0.61,0.38 c -36.35,22.68 -63.81,53.11 -82.05,87.29 -18.26,34.18 -27.35,72.09 -27.36,109.98 0.01,37.89 9.1,75.8 27.36,109.98 18.24,34.18 45.7,64.61 82.05,87.29 l 0.62,0.38 621.58,309.33 c 0.81,-2.03 2.32,-3.75 4.42,-4.89 1.71,-0.93 3.65,-1.37 5.57,-1.37 3.19,0 6.33,1.23 8.36,3.53 2.13,2.44 3.43,6.69 0.68,11.42 l -1.3,0.13 151.26,75.27 c 2.81,-2.8 6.81,-4.62 11.27,-5.03 0.6,-0.05 1.18,-0.08 1.75,-0.08 3.76,0 6.82,1.17 8.77,3.39 2.47,2.81 2.61,6.78 0.44,10.12 l -4.21,0.57 382.48,190.34 c 1.84,-0.98 3.72,-1.63 5.39,-1.87 0.54,-0.07 1.05,-0.11 1.54,-0.11 3.32,0 5.28,1.62 6.21,2.68 l 0.02,0.02 c 1.03,1.18 2.32,3.38 1.76,6.71 l 14.7,7.31 -2.88,-8.78 c 1.07,-1.01 1.58,-2.03 2.24,-3.31 1.35,-2.67 3.84,-7.55 11.66,-7.55 0.38,0 0.77,0.01 1.18,0.03 l 3.66,1.47 1.92,1.85 c 5.87,6.68 2.23,13.52 0.48,16.82 -0.5,1 -1.17,2.2 -1.26,2.8 l -6.38,1.04 c 0.51,0.51 0.95,1.05 1.33,1.61 23.77,14.68 49.53,24.71 76.01,30.07 1.16,-0.64 2.38,-1.18 3.58,-1.54 1.37,-0.43 2.6,-0.6 3.68,-0.6 3.45,0 5.44,1.76 6.25,2.68 l -1.74,1.53 c 11.4,1.71 22.91,2.56 34.41,2.56 l 0.01,0 c 26.95,0 53.92,-4.68 79.61,-14.04 l -8.25,-2.27 -2.48,-3.86 c -3.65,-5.64 -7.92,-12.22 -8.17,-19.14 -19.74,6.21 -40.22,9.31 -60.71,9.31 -37.23,-0.01 -74.44,-10.24 -107.26,-30.73 l -0.62,-0.38 -37.35,-18.6 c 0.95,1.9 1.33,4.17 1.11,6.78 l -1.39,3.46 c -3.57,4.34 -7.43,5.32 -10.04,5.36 -0.07,0 -0.15,0 -0.22,0 -3.6,0 -7.08,-1.72 -9.83,-4.84 -3.95,-4.52 -6.43,-12.41 -3.22,-18.15 l 8.23,-0.25 -348.07,-173.21 c -0.44,0.3 -0.91,0.6 -1.43,0.88 l -7.72,-1.37 -3.62,-4.11 0,-1.75 -55.76,-27.75 1.12,4.66 c -1.24,3.55 -3.56,10.19 -9.44,11.53 -0.51,0.12 -1.16,0.22 -1.92,0.22 -1.89,0 -4.42,-0.62 -6.91,-3.11 l -0.8,-7.89 -0.38,1.38 -0.07,-8.57 4.16,-3.65 3.33,0 -523.05,-260.29 c 0.88,2.06 1.29,4.38 1.11,6.79 -0.34,4.52 -2.63,8.88 -6.24,11.89 l -8.07,0.01 c -9.68,-8.21 -7.2,-16.14 -5.29,-21.31 l -1.75,0.08 c -4.06,-1.96 -7.27,-6.81 -8.13,-11.58 l -200.66,-99.86 c -31.58,-19.87 -55.09,-46.08 -70.87,-75.59 -15.86,-29.69 -23.82,-62.76 -23.81,-95.85 -0.01,-33.09 7.95,-66.16 23.81,-95.85 15.78,-29.51 39.29,-55.73 70.87,-75.6 l 1231.66,-612.91 -6.68,-13.43 -7.95,-12.73 0,0 7.95,12.73 6.68,13.43 0.64,-0.32 0.62,-0.39 c 32.82,-20.49 70.03,-30.73 107.26,-30.73 37.23,0 74.43,10.24 107.26,30.73 l 0.62,0.39 1232.29,613.23 c 31.58,19.87 55.1,46.09 70.88,75.6 15.86,29.69 23.82,62.76 23.81,95.85 0.01,33.09 -7.95,66.16 -23.81,95.85 -15.78,29.51 -39.3,55.72 -70.87,75.59 L 6115.72,6936 c 0.18,0.47 0.39,0.98 0.66,1.52 l 0.02,0.05 0.01,0.02 -2.54,1.26 c 0.12,1.29 0.41,3.25 0.54,4.14 0.4,2.58 0.94,6.15 -2.62,8.36 l -6.83,-0.13 c -1.95,-1.31 -3.74,-3.46 -5.44,-5.84 -0.21,-0.31 -0.43,-0.61 -0.71,-0.97 l -136.2,67.79 -0.62,0.38 c -8.85,5.52 -18.02,10.3 -27.42,14.34 1.11,0.94 2.17,1.98 3.15,3.1 4.78,5.44 6.92,11.81 5.87,17.47 -0.62,3.46 -2.72,8.29 -9.13,11.73 14.76,-5.39 29.11,-12.32 42.79,-20.8 l 361.27,-179.78 c 0.04,-0.16 0.09,-0.32 0.13,-0.49 l 0.94,-0.05 869.99,-432.94 0.61,-0.38 c 36.35,-22.68 63.81,-53.11 82.05,-87.29 18.25,-34.18 27.35,-72.09 27.35,-109.98 0,-37.89 -9.1,-75.8 -27.35,-109.98 -18.24,-34.18 -45.7,-64.61 -82.05,-87.29 l -0.61,-0.38 -1232.33,-613.26 c -37.52,-23.25 -80.03,-34.89 -122.51,-34.89 m 1255.73,623.16 c -0.09,0 -0.18,0 -0.28,0 -2.41,-0.07 -6.04,-0.95 -9.51,-4.9 l -1.17,-1.48 0.93,-8.44 6.18,-5.43 8.84,0.58 5.46,6.22 -0.19,8.47 c -3.23,3.34 -6.64,4.98 -10.26,4.98 m 91.77,38.09 0,0 m -1758.75,-482.68 -0.87,0.44 1.37,3.4 c 0.6,-0.76 0.53,-1.88 -0.5,-3.84"
         id="path7799-6"
         inkscape:connector-curvature="0" /></clipPath></defs><sodipodi:namedview
     pagecolor="#ffffff"
     bordercolor="#666666"
     borderopacity="1"
     objecttolerance="10"
     gridtolerance="10"
     guidetolerance="10"
     inkscape:pageopacity="0"
     inkscape:pageshadow="2"
     inkscape:window-width="1301"
     inkscape:window-height="744"
     id="namedview3973"
     showgrid="false"
     inkscape:zoom="0.86772068"
     inkscape:cx="208.2197"
     inkscape:cy="129.01007"
     inkscape:window-x="65"
     inkscape:window-y="24"
     inkscape:window-maximized="1"
     inkscape:current-layer="g3981"
     showguides="false" /><g
     id="g3979"
     inkscape:groupmode="layer"
     inkscape:label="ink_ext_XXXXXX"
     transform="matrix(1.25,0,0,-1.25,0,265)"><g
       id="g3981"
       transform="scale(0.1,0.1)"
       style="display:inline"><path
         d="m 0,68.855932 5000,0 0,4999.999968 -5000,0 L 0,68.855932 Z"
         style="fill:none;fill-opacity:0;fill-rule:nonzero;stroke:url(#linearGradient5651);stroke-opacity:1"
         id="path3983"
         inkscape:connector-curvature="0" /><flowRoot
         xml:space="preserve"
         id="flowRoot6748"
         style="font-style:normal;font-weight:normal;font-size:40px;line-height:125%;font-family:sans-serif;letter-spacing:0px;word-spacing:0px;fill:#000000;fill-opacity:1;stroke:none;stroke-width:1px;stroke-linecap:butt;stroke-linejoin:miter;stroke-opacity:1"><flowRegion
           id="flowRegion6750"><rect
             id="rect6752"
             width="510.08478"
             height="498.17618"
             x="63.512501"
             y="-129.93243" /></flowRegion><flowPara
           id="flowPara6754" /></flowRoot><flowRoot
         xml:space="preserve"
         id="flowRoot6756"
         style="font-style:normal;font-weight:normal;font-size:40px;line-height:125%;font-family:sans-serif;letter-spacing:0px;word-spacing:0px;fill:#000000;fill-opacity:1;stroke:none;stroke-width:1px;stroke-linecap:butt;stroke-linejoin:miter;stroke-opacity:1"><flowRegion
           id="flowRegion6758"><rect
             id="rect6760"
             width="55.573441"
             height="117.10117"
             x="-7.9390626"
             y="-282.7594" /></flowRegion><flowPara
           id="flowPara6762" /></flowRoot><path
         d="m 2405.7416,1709.7167 30.5807,-535.7162 -237.5043,0 -68.5962,520.4258 z m -172.1255,-699.5075 c 89.6079,0 162.2398,-68.30681 162.2398,-152.54971 0,-5.5326 -0.3476,-10.9897 -0.9778,-16.39 l 510.0694,0 -66.2684,332.73101 -299.1383,0 0,709.1813 -2134.85884,-106.2599 0,-935.65241 223.17897,0 c -0.60169,5.4003 -0.94929,10.8574 -0.94929,16.39 0,84.2429 72.60407,152.54971 162.21196,152.54971 89.59849,0 162.23084,-68.30681 162.23084,-152.54971 0,-5.5326 -0.33891,-10.9897 -0.97756,-16.39 l 1121.97652,0 c -0.6024,5.4003 -0.9408,10.8574 -0.9408,16.39 0,84.2429 72.6036,152.54971 162.2027,152.54971"
         style="display:inline;fill:#b3b3b3;fill-opacity:1;fill-rule:nonzero;stroke:none"
         id="path3579-8-1-1-8"
         inkscape:connector-curvature="0"
         sodipodi:nodetypes="ccccccsccccccccsssccsc" /><path
         d="m 789.1236,748.00479 c -31.45154,0 -56.95369,30.8651 -56.95369,68.903 0,38.0625 25.50215,68.911 56.95369,68.911 31.47056,0 56.98112,-30.8485 56.98112,-68.911 0,-38.0379 -25.51056,-68.903 -56.98112,-68.903 z m 0,225.63481 c -71.34471,0 -129.1907,-69.97301 -129.1907,-156.26161 0,-86.305 57.84599,-156.2778 129.1907,-156.2778 71.344,0 129.18089,69.9728 129.18089,156.2778 0,86.2886 -57.83689,156.26161 -129.18089,156.26161"
         style="display:inline;fill:#012051;fill-opacity:1;fill-rule:nonzero;stroke:none"
         id="path3581-5-9-2-7"
         inkscape:connector-curvature="0" /><path
         inkscape:connector-curvature="0"
         id="path6036-7-9"
         style="display:inline;opacity:0.68000034;fill:#012051;fill-opacity:1;fill-rule:nonzero;stroke:none"
         d="m 2684.6307,1627.3886 c -51.6218,3.9965 -79.9448,27.8106 -77.4838,54.0548 4.2308,45.03 96.2323,78.1371 126.3351,117.7288 23.3293,30.6842 -32.9493,50.6804 -56.9242,75.8981 -21.5361,22.6551 -28.7925,48.1901 -21.9919,73.1278 8.3285,30.5443 33.033,60.0086 80.6409,79.2503 11.9613,4.8391 29.0462,-0.5158 20.8587,-8.2728 -38.7565,-36.7114 -54.4934,-76.3697 -18.9227,-115.4089 24.5905,-26.9757 75.5264,-45.0501 88.0129,-75.462 11.9821,-29.1477 -15.0196,-59.204 -54.6422,-79.3165 -23.3232,-11.849 -53.7254,-16.76 -79.1202,-27.1683 -41.15,-16.871 -84.2698,-68.5329 1.9405,-78.786 17.7827,-2.1046 7.9736,-16.9371 -8.7031,-15.6453 l 0,0" /><path
         d="m 2222.376,749.09929 c -31.4515,0 -56.9537,30.8651 -56.9537,68.9029 0,38.0626 25.5022,68.911 56.9537,68.911 31.4704,0 56.9811,-30.8484 56.9811,-68.911 0,-38.0378 -25.5107,-68.9029 -56.9811,-68.9029 z m 0,225.63451 c -71.3448,0 -129.1907,-69.97281 -129.1907,-156.26141 0,-86.305 57.8459,-156.2778 129.1907,-156.2778 71.344,0 129.1808,69.9728 129.1808,156.2778 0,86.2886 -57.8368,156.26141 -129.1808,156.26141"
         style="display:inline;fill:#012051;fill-opacity:1;fill-rule:nonzero;stroke:none"
         id="path3581-5-9-2-7-7"
         inkscape:connector-curvature="0" /><path
         inkscape:connector-curvature="0"
         id="path4469"
         style="fill:#012051;fill-opacity:1;fill-rule:nonzero;stroke:none"
         d="m 3086.5778,168.83302 -2937.54848,0 116.95603,246.73685 -116.95603,246.73722 2937.54848,0 -144.485,-246.73722 144.485,-246.73685" /><text
         style="font-variant:normal;font-weight:normal;font-size:792.6494751px;font-family:HVDComicSerifPro;-inkscape-font-specification:HVDComicSerifPro;text-align:center;writing-mode:lr-tb;text-anchor:middle;display:inline;fill:#e8e5c0;fill-opacity:1;fill-rule:nonzero;stroke:none"
         id="text6646-6-1"
         x="1673.4877"
         y="-283.38318"
         transform="scale(0.94627353,-1.0567769)"><tspan
           x="1673.4877"
           y="-283.38318"
           sodipodi:role="line"
           style="font-style:normal;font-variant:normal;font-weight:bold;font-stretch:normal;font-size:360px;font-family:HVDComicSerifPro;-inkscape-font-specification:'HVDComicSerifPro Bold';text-align:center;text-anchor:middle"
           id="tspan7548-0-0">Smoky Truck</tspan></text>
</g></g></svg>